<svg xmlns="http://www.w3.org/2000/svg" viewBox="0 0 760 340" width="760" height="340" font-family="ui-monospace,SFMono-Regular,Menlo,Consolas,monospace">
<rect x="1" y="1" width="758" height="338" rx="14" fill="#0d1117" stroke="#30363d"/>
<text x="24" y="36" font-size="16" font-weight="700" fill="#e6edf3">Inter-key timing: a person vs a bot</text>
<line x1="0" y1="56" x2="760" y2="56" stroke="#30363d"/>
<line x1="66.0" y1="96" x2="66.0" y2="262" stroke="#1b212b" stroke-width="1"/>
<text x="66.0" y="280" font-size="11" fill="#6e7681" text-anchor="middle">0</text>
<line x1="161.1" y1="96" x2="161.1" y2="262" stroke="#1b212b" stroke-width="1"/>
<text x="161.1" y="280" font-size="11" fill="#6e7681" text-anchor="middle">100</text>
<line x1="256.3" y1="96" x2="256.3" y2="262" stroke="#1b212b" stroke-width="1"/>
<text x="256.3" y="280" font-size="11" fill="#6e7681" text-anchor="middle">200</text>
<line x1="351.4" y1="96" x2="351.4" y2="262" stroke="#1b212b" stroke-width="1"/>
<text x="351.4" y="280" font-size="11" fill="#6e7681" text-anchor="middle">300</text>
<line x1="446.6" y1="96" x2="446.6" y2="262" stroke="#1b212b" stroke-width="1"/>
<text x="446.6" y="280" font-size="11" fill="#6e7681" text-anchor="middle">400</text>
<line x1="541.7" y1="96" x2="541.7" y2="262" stroke="#1b212b" stroke-width="1"/>
<text x="541.7" y="280" font-size="11" fill="#6e7681" text-anchor="middle">500</text>
<line x1="636.9" y1="96" x2="636.9" y2="262" stroke="#1b212b" stroke-width="1"/>
<text x="636.9" y="280" font-size="11" fill="#6e7681" text-anchor="middle">600</text>
<line x1="732.0" y1="96" x2="732.0" y2="262" stroke="#1b212b" stroke-width="1"/>
<text x="732.0" y="280" font-size="11" fill="#6e7681" text-anchor="middle">700</text>
<line x1="66" y1="262" x2="732" y2="262" stroke="#30363d" stroke-width="1"/>
<text x="399" y="302" font-size="12.5" fill="#8b949e" text-anchor="middle">inter-key interval (milliseconds)</text>
<text x="26" y="179" font-size="12" fill="#6e7681" text-anchor="middle" transform="rotate(-90 26 179)">how often</text>
<rect x="66.0" y="96" width="47.6" height="166" fill="#f85149" opacity="0.07"/>
<path d="M 66.0 262 L 66.0 262.0 L 68.4 262.0 L 70.8 262.0 L 73.1 262.0 L 75.5 262.0 L 77.9 262.0 L 80.3 262.0 L 82.7 262.0 L 85.0 262.0 L 87.4 262.0 L 89.8 262.0 L 92.2 262.0 L 94.5 262.0 L 96.9 262.0 L 99.3 262.0 L 101.7 261.9 L 104.1 261.9 L 106.4 261.8 L 108.8 261.7 L 111.2 261.5 L 113.6 261.3 L 115.9 261.0 L 118.3 260.5 L 120.7 260.0 L 123.1 259.3 L 125.5 258.5 L 127.8 257.5 L 130.2 256.3 L 132.6 255.0 L 135.0 253.4 L 137.4 251.7 L 139.7 249.7 L 142.1 247.6 L 144.5 245.3 L 146.9 242.7 L 149.2 240.0 L 151.6 237.1 L 154.0 234.1 L 156.4 230.9 L 158.8 227.6 L 161.1 224.2 L 163.5 220.7 L 165.9 217.2 L 168.3 213.6 L 170.7 209.9 L 173.0 206.3 L 175.4 202.6 L 177.8 199.0 L 180.2 195.4 L 182.6 191.8 L 184.9 188.4 L 187.3 185.0 L 189.7 181.7 L 192.1 178.5 L 194.4 175.4 L 196.8 172.5 L 199.2 169.7 L 201.6 167.0 L 204.0 164.5 L 206.3 162.2 L 208.7 160.0 L 211.1 158.0 L 213.5 156.1 L 215.8 154.4 L 218.2 152.8 L 220.6 151.4 L 223.0 150.2 L 225.4 149.1 L 227.7 148.2 L 230.1 147.5 L 232.5 146.8 L 234.9 146.4 L 237.3 146.1 L 239.6 145.9 L 242.0 145.8 L 244.4 145.9 L 246.8 146.1 L 249.2 146.4 L 251.5 146.8 L 253.9 147.3 L 256.3 147.9 L 258.7 148.6 L 261.0 149.4 L 263.4 150.3 L 265.8 151.3 L 268.2 152.3 L 270.6 153.4 L 272.9 154.6 L 275.3 155.8 L 277.7 157.0 L 280.1 158.4 L 282.5 159.7 L 284.8 161.1 L 287.2 162.6 L 289.6 164.1 L 292.0 165.6 L 294.3 167.1 L 296.7 168.6 L 299.1 170.2 L 301.5 171.8 L 303.9 173.3 L 306.2 174.9 L 308.6 176.5 L 311.0 178.1 L 313.4 179.7 L 315.8 181.3 L 318.1 182.9 L 320.5 184.5 L 322.9 186.1 L 325.3 187.7 L 327.6 189.3 L 330.0 190.8 L 332.4 192.4 L 334.8 193.9 L 337.2 195.4 L 339.5 196.9 L 341.9 198.4 L 344.3 199.8 L 346.7 201.3 L 349.1 202.7 L 351.4 204.1 L 353.8 205.5 L 356.2 206.8 L 358.6 208.2 L 360.9 209.5 L 363.3 210.8 L 365.7 212.0 L 368.1 213.3 L 370.5 214.5 L 372.8 215.7 L 375.2 216.9 L 377.6 218.0 L 380.0 219.2 L 382.3 220.3 L 384.7 221.3 L 387.1 222.4 L 389.5 223.4 L 391.9 224.5 L 394.2 225.5 L 396.6 226.4 L 399.0 227.4 L 401.4 228.3 L 403.8 229.2 L 406.1 230.1 L 408.5 231.0 L 410.9 231.8 L 413.3 232.6 L 415.7 233.4 L 418.0 234.2 L 420.4 235.0 L 422.8 235.7 L 425.2 236.5 L 427.5 237.2 L 429.9 237.9 L 432.3 238.5 L 434.7 239.2 L 437.1 239.8 L 439.4 240.4 L 441.8 241.1 L 444.2 241.6 L 446.6 242.2 L 448.9 242.8 L 451.3 243.3 L 453.7 243.9 L 456.1 244.4 L 458.5 244.9 L 460.8 245.4 L 463.2 245.8 L 465.6 246.3 L 468.0 246.8 L 470.4 247.2 L 472.7 247.6 L 475.1 248.0 L 477.5 248.4 L 479.9 248.8 L 482.2 249.2 L 484.6 249.6 L 487.0 249.9 L 489.4 250.3 L 491.8 250.6 L 494.1 250.9 L 496.5 251.3 L 498.9 251.6 L 501.3 251.9 L 503.7 252.2 L 506.0 252.5 L 508.4 252.7 L 510.8 253.0 L 513.2 253.3 L 515.5 253.5 L 517.9 253.8 L 520.3 254.0 L 522.7 254.2 L 525.1 254.5 L 527.4 254.7 L 529.8 254.9 L 532.2 255.1 L 534.6 255.3 L 537.0 255.5 L 539.3 255.7 L 541.7 255.9 L 544.1 256.1 L 546.5 256.2 L 548.8 256.4 L 551.2 256.6 L 553.6 256.7 L 556.0 256.9 L 558.4 257.0 L 560.7 257.2 L 563.1 257.3 L 565.5 257.4 L 567.9 257.6 L 570.3 257.7 L 572.6 257.8 L 575.0 258.0 L 577.4 258.1 L 579.8 258.2 L 582.1 258.3 L 584.5 258.4 L 586.9 258.5 L 589.3 258.6 L 591.7 258.7 L 594.0 258.8 L 596.4 258.9 L 598.8 259.0 L 601.2 259.1 L 603.6 259.2 L 605.9 259.2 L 608.3 259.3 L 610.7 259.4 L 613.1 259.5 L 615.4 259.5 L 617.8 259.6 L 620.2 259.7 L 622.6 259.8 L 625.0 259.8 L 627.3 259.9 L 629.7 259.9 L 632.1 260.0 L 634.5 260.1 L 636.9 260.1 L 639.2 260.2 L 641.6 260.2 L 644.0 260.3 L 646.4 260.3 L 648.8 260.4 L 651.1 260.4 L 653.5 260.5 L 655.9 260.5 L 658.3 260.5 L 660.6 260.6 L 663.0 260.6 L 665.4 260.7 L 667.8 260.7 L 670.2 260.7 L 672.5 260.8 L 674.9 260.8 L 677.3 260.8 L 679.7 260.9 L 682.1 260.9 L 684.4 260.9 L 686.8 261.0 L 689.2 261.0 L 691.6 261.0 L 693.9 261.1 L 696.3 261.1 L 698.7 261.1 L 701.1 261.1 L 703.5 261.2 L 705.8 261.2 L 708.2 261.2 L 710.6 261.2 L 713.0 261.3 L 715.4 261.3 L 717.7 261.3 L 720.1 261.3 L 722.5 261.3 L 724.9 261.3 L 727.2 261.4 L 729.6 261.4 L 732.0 261.4 L 732.0 262 Z" fill="#58a6ff" opacity="0"><animate attributeName="opacity" dur="7.0s" repeatCount="indefinite" values="0;0;0.16;0.16;0" keyTimes="0;0.18;0.3;0.9;1"/></path>
<path d="M 66.0 262 L 66.0 262.0 L 68.4 262.0 L 70.8 262.0 L 73.1 262.0 L 75.5 262.0 L 77.9 262.0 L 80.3 262.0 L 82.7 262.0 L 85.0 261.9 L 87.4 261.6 L 89.8 260.8 L 92.2 259.0 L 94.5 255.1 L 96.9 247.6 L 99.3 234.8 L 101.7 215.5 L 104.1 189.8 L 106.4 160.4 L 108.8 132.3 L 111.2 111.8 L 113.6 104.3 L 115.9 111.8 L 118.3 132.3 L 120.7 160.4 L 123.1 189.8 L 125.5 215.5 L 127.8 234.8 L 130.2 247.6 L 132.6 255.1 L 135.0 259.0 L 137.4 260.8 L 139.7 261.6 L 142.1 261.9 L 144.5 262.0 L 146.9 262.0 L 149.2 262.0 L 151.6 262.0 L 154.0 262.0 L 156.4 262.0 L 158.8 262.0 L 161.1 262.0 L 163.5 262.0 L 165.9 262.0 L 168.3 262.0 L 170.7 262.0 L 173.0 262.0 L 175.4 262.0 L 177.8 262.0 L 180.2 262.0 L 182.6 262.0 L 184.9 262.0 L 187.3 262.0 L 189.7 262.0 L 192.1 262.0 L 194.4 262.0 L 196.8 262.0 L 199.2 262.0 L 201.6 262.0 L 204.0 262.0 L 206.3 262.0 L 208.7 262.0 L 211.1 262.0 L 213.5 262.0 L 215.8 262.0 L 218.2 262.0 L 220.6 262.0 L 223.0 262.0 L 225.4 262.0 L 227.7 262.0 L 230.1 262.0 L 232.5 262.0 L 234.9 262.0 L 237.3 262.0 L 239.6 262.0 L 242.0 262.0 L 244.4 262.0 L 246.8 262.0 L 249.2 262.0 L 251.5 262.0 L 253.9 262.0 L 256.3 261.9 L 258.7 261.8 L 261.0 261.7 L 263.4 261.5 L 265.8 261.1 L 268.2 260.5 L 270.6 259.6 L 272.9 258.4 L 275.3 256.6 L 277.7 254.2 L 280.1 251.1 L 282.5 247.3 L 284.8 242.7 L 287.2 237.5 L 289.6 231.8 L 292.0 226.0 L 294.3 220.5 L 296.7 215.5 L 299.1 211.7 L 301.5 209.2 L 303.9 208.4 L 306.2 209.2 L 308.6 211.7 L 311.0 215.5 L 313.4 220.5 L 315.8 226.0 L 318.1 231.8 L 320.5 237.5 L 322.9 242.7 L 325.3 247.3 L 327.6 251.1 L 330.0 254.2 L 332.4 256.6 L 334.8 258.4 L 337.2 259.6 L 339.5 260.5 L 341.9 261.1 L 344.3 261.5 L 346.7 261.7 L 349.1 261.8 L 351.4 261.9 L 353.8 262.0 L 356.2 262.0 L 358.6 262.0 L 360.9 262.0 L 363.3 262.0 L 365.7 262.0 L 368.1 262.0 L 370.5 262.0 L 372.8 262.0 L 375.2 262.0 L 377.6 262.0 L 380.0 262.0 L 382.3 262.0 L 384.7 262.0 L 387.1 262.0 L 389.5 262.0 L 391.9 262.0 L 394.2 262.0 L 396.6 262.0 L 399.0 262.0 L 401.4 262.0 L 403.8 262.0 L 406.1 262.0 L 408.5 262.0 L 410.9 262.0 L 413.3 262.0 L 415.7 262.0 L 418.0 262.0 L 420.4 262.0 L 422.8 262.0 L 425.2 262.0 L 427.5 262.0 L 429.9 262.0 L 432.3 262.0 L 434.7 262.0 L 437.1 262.0 L 439.4 262.0 L 441.8 262.0 L 444.2 262.0 L 446.6 262.0 L 448.9 262.0 L 451.3 262.0 L 453.7 262.0 L 456.1 262.0 L 458.5 262.0 L 460.8 262.0 L 463.2 262.0 L 465.6 262.0 L 468.0 262.0 L 470.4 262.0 L 472.7 262.0 L 475.1 262.0 L 477.5 262.0 L 479.9 262.0 L 482.2 262.0 L 484.6 262.0 L 487.0 262.0 L 489.4 262.0 L 491.8 262.0 L 494.1 262.0 L 496.5 262.0 L 498.9 262.0 L 501.3 262.0 L 503.7 262.0 L 506.0 262.0 L 508.4 262.0 L 510.8 262.0 L 513.2 262.0 L 515.5 262.0 L 517.9 262.0 L 520.3 262.0 L 522.7 262.0 L 525.1 262.0 L 527.4 262.0 L 529.8 262.0 L 532.2 262.0 L 534.6 262.0 L 537.0 262.0 L 539.3 262.0 L 541.7 262.0 L 544.1 262.0 L 546.5 262.0 L 548.8 262.0 L 551.2 262.0 L 553.6 262.0 L 556.0 262.0 L 558.4 262.0 L 560.7 262.0 L 563.1 262.0 L 565.5 262.0 L 567.9 262.0 L 570.3 262.0 L 572.6 262.0 L 575.0 262.0 L 577.4 262.0 L 579.8 262.0 L 582.1 262.0 L 584.5 262.0 L 586.9 262.0 L 589.3 262.0 L 591.7 262.0 L 594.0 262.0 L 596.4 262.0 L 598.8 262.0 L 601.2 262.0 L 603.6 262.0 L 605.9 262.0 L 608.3 262.0 L 610.7 262.0 L 613.1 262.0 L 615.4 262.0 L 617.8 262.0 L 620.2 262.0 L 622.6 262.0 L 625.0 262.0 L 627.3 262.0 L 629.7 262.0 L 632.1 262.0 L 634.5 262.0 L 636.9 262.0 L 639.2 262.0 L 641.6 262.0 L 644.0 262.0 L 646.4 262.0 L 648.8 262.0 L 651.1 262.0 L 653.5 262.0 L 655.9 262.0 L 658.3 262.0 L 660.6 262.0 L 663.0 262.0 L 665.4 262.0 L 667.8 262.0 L 670.2 262.0 L 672.5 262.0 L 674.9 262.0 L 677.3 262.0 L 679.7 262.0 L 682.1 262.0 L 684.4 262.0 L 686.8 262.0 L 689.2 262.0 L 691.6 262.0 L 693.9 262.0 L 696.3 262.0 L 698.7 262.0 L 701.1 262.0 L 703.5 262.0 L 705.8 262.0 L 708.2 262.0 L 710.6 262.0 L 713.0 262.0 L 715.4 262.0 L 717.7 262.0 L 720.1 262.0 L 722.5 262.0 L 724.9 262.0 L 727.2 262.0 L 729.6 262.0 L 732.0 262.0 L 732.0 262 Z" fill="#f85149" opacity="0"><animate attributeName="opacity" dur="7.0s" repeatCount="indefinite" values="0;0;0.18;0.18;0" keyTimes="0;0.216;0.36;0.9;1"/></path>
<path d="M 66.0 262.0 L 68.4 262.0 L 70.8 262.0 L 73.1 262.0 L 75.5 262.0 L 77.9 262.0 L 80.3 262.0 L 82.7 262.0 L 85.0 261.9 L 87.4 261.6 L 89.8 260.8 L 92.2 259.0 L 94.5 255.1 L 96.9 247.6 L 99.3 234.8 L 101.7 215.5 L 104.1 189.8 L 106.4 160.4 L 108.8 132.3 L 111.2 111.8 L 113.6 104.3 L 115.9 111.8 L 118.3 132.3 L 120.7 160.4 L 123.1 189.8 L 125.5 215.5 L 127.8 234.8 L 130.2 247.6 L 132.6 255.1 L 135.0 259.0 L 137.4 260.8 L 139.7 261.6 L 142.1 261.9 L 144.5 262.0 L 146.9 262.0 L 149.2 262.0 L 151.6 262.0 L 154.0 262.0 L 156.4 262.0 L 158.8 262.0 L 161.1 262.0 L 163.5 262.0 L 165.9 262.0 L 168.3 262.0 L 170.7 262.0 L 173.0 262.0 L 175.4 262.0 L 177.8 262.0 L 180.2 262.0 L 182.6 262.0 L 184.9 262.0 L 187.3 262.0 L 189.7 262.0 L 192.1 262.0 L 194.4 262.0 L 196.8 262.0 L 199.2 262.0 L 201.6 262.0 L 204.0 262.0 L 206.3 262.0 L 208.7 262.0 L 211.1 262.0 L 213.5 262.0 L 215.8 262.0 L 218.2 262.0 L 220.6 262.0 L 223.0 262.0 L 225.4 262.0 L 227.7 262.0 L 230.1 262.0 L 232.5 262.0 L 234.9 262.0 L 237.3 262.0 L 239.6 262.0 L 242.0 262.0 L 244.4 262.0 L 246.8 262.0 L 249.2 262.0 L 251.5 262.0 L 253.9 262.0 L 256.3 261.9 L 258.7 261.8 L 261.0 261.7 L 263.4 261.5 L 265.8 261.1 L 268.2 260.5 L 270.6 259.6 L 272.9 258.4 L 275.3 256.6 L 277.7 254.2 L 280.1 251.1 L 282.5 247.3 L 284.8 242.7 L 287.2 237.5 L 289.6 231.8 L 292.0 226.0 L 294.3 220.5 L 296.7 215.5 L 299.1 211.7 L 301.5 209.2 L 303.9 208.4 L 306.2 209.2 L 308.6 211.7 L 311.0 215.5 L 313.4 220.5 L 315.8 226.0 L 318.1 231.8 L 320.5 237.5 L 322.9 242.7 L 325.3 247.3 L 327.6 251.1 L 330.0 254.2 L 332.4 256.6 L 334.8 258.4 L 337.2 259.6 L 339.5 260.5 L 341.9 261.1 L 344.3 261.5 L 346.7 261.7 L 349.1 261.8 L 351.4 261.9 L 353.8 262.0 L 356.2 262.0 L 358.6 262.0 L 360.9 262.0 L 363.3 262.0 L 365.7 262.0 L 368.1 262.0 L 370.5 262.0 L 372.8 262.0 L 375.2 262.0 L 377.6 262.0 L 380.0 262.0 L 382.3 262.0 L 384.7 262.0 L 387.1 262.0 L 389.5 262.0 L 391.9 262.0 L 394.2 262.0 L 396.6 262.0 L 399.0 262.0 L 401.4 262.0 L 403.8 262.0 L 406.1 262.0 L 408.5 262.0 L 410.9 262.0 L 413.3 262.0 L 415.7 262.0 L 418.0 262.0 L 420.4 262.0 L 422.8 262.0 L 425.2 262.0 L 427.5 262.0 L 429.9 262.0 L 432.3 262.0 L 434.7 262.0 L 437.1 262.0 L 439.4 262.0 L 441.8 262.0 L 444.2 262.0 L 446.6 262.0 L 448.9 262.0 L 451.3 262.0 L 453.7 262.0 L 456.1 262.0 L 458.5 262.0 L 460.8 262.0 L 463.2 262.0 L 465.6 262.0 L 468.0 262.0 L 470.4 262.0 L 472.7 262.0 L 475.1 262.0 L 477.5 262.0 L 479.9 262.0 L 482.2 262.0 L 484.6 262.0 L 487.0 262.0 L 489.4 262.0 L 491.8 262.0 L 494.1 262.0 L 496.5 262.0 L 498.9 262.0 L 501.3 262.0 L 503.7 262.0 L 506.0 262.0 L 508.4 262.0 L 510.8 262.0 L 513.2 262.0 L 515.5 262.0 L 517.9 262.0 L 520.3 262.0 L 522.7 262.0 L 525.1 262.0 L 527.4 262.0 L 529.8 262.0 L 532.2 262.0 L 534.6 262.0 L 537.0 262.0 L 539.3 262.0 L 541.7 262.0 L 544.1 262.0 L 546.5 262.0 L 548.8 262.0 L 551.2 262.0 L 553.6 262.0 L 556.0 262.0 L 558.4 262.0 L 560.7 262.0 L 563.1 262.0 L 565.5 262.0 L 567.9 262.0 L 570.3 262.0 L 572.6 262.0 L 575.0 262.0 L 577.4 262.0 L 579.8 262.0 L 582.1 262.0 L 584.5 262.0 L 586.9 262.0 L 589.3 262.0 L 591.7 262.0 L 594.0 262.0 L 596.4 262.0 L 598.8 262.0 L 601.2 262.0 L 603.6 262.0 L 605.9 262.0 L 608.3 262.0 L 610.7 262.0 L 613.1 262.0 L 615.4 262.0 L 617.8 262.0 L 620.2 262.0 L 622.6 262.0 L 625.0 262.0 L 627.3 262.0 L 629.7 262.0 L 632.1 262.0 L 634.5 262.0 L 636.9 262.0 L 639.2 262.0 L 641.6 262.0 L 644.0 262.0 L 646.4 262.0 L 648.8 262.0 L 651.1 262.0 L 653.5 262.0 L 655.9 262.0 L 658.3 262.0 L 660.6 262.0 L 663.0 262.0 L 665.4 262.0 L 667.8 262.0 L 670.2 262.0 L 672.5 262.0 L 674.9 262.0 L 677.3 262.0 L 679.7 262.0 L 682.1 262.0 L 684.4 262.0 L 686.8 262.0 L 689.2 262.0 L 691.6 262.0 L 693.9 262.0 L 696.3 262.0 L 698.7 262.0 L 701.1 262.0 L 703.5 262.0 L 705.8 262.0 L 708.2 262.0 L 710.6 262.0 L 713.0 262.0 L 715.4 262.0 L 717.7 262.0 L 720.1 262.0 L 722.5 262.0 L 724.9 262.0 L 727.2 262.0 L 729.6 262.0 L 732.0 262.0" fill="none" stroke="#f85149" stroke-width="2.4" stroke-dasharray="998" stroke-dashoffset="998"><animate attributeName="stroke-dashoffset" dur="7.0s" repeatCount="indefinite" values="998;0;0;998" keyTimes="0;0.36;0.9;1"/></path>
<path d="M 66.0 262.0 L 68.4 262.0 L 70.8 262.0 L 73.1 262.0 L 75.5 262.0 L 77.9 262.0 L 80.3 262.0 L 82.7 262.0 L 85.0 262.0 L 87.4 262.0 L 89.8 262.0 L 92.2 262.0 L 94.5 262.0 L 96.9 262.0 L 99.3 262.0 L 101.7 261.9 L 104.1 261.9 L 106.4 261.8 L 108.8 261.7 L 111.2 261.5 L 113.6 261.3 L 115.9 261.0 L 118.3 260.5 L 120.7 260.0 L 123.1 259.3 L 125.5 258.5 L 127.8 257.5 L 130.2 256.3 L 132.6 255.0 L 135.0 253.4 L 137.4 251.7 L 139.7 249.7 L 142.1 247.6 L 144.5 245.3 L 146.9 242.7 L 149.2 240.0 L 151.6 237.1 L 154.0 234.1 L 156.4 230.9 L 158.8 227.6 L 161.1 224.2 L 163.5 220.7 L 165.9 217.2 L 168.3 213.6 L 170.7 209.9 L 173.0 206.3 L 175.4 202.6 L 177.8 199.0 L 180.2 195.4 L 182.6 191.8 L 184.9 188.4 L 187.3 185.0 L 189.7 181.7 L 192.1 178.5 L 194.4 175.4 L 196.8 172.5 L 199.2 169.7 L 201.6 167.0 L 204.0 164.5 L 206.3 162.2 L 208.7 160.0 L 211.1 158.0 L 213.5 156.1 L 215.8 154.4 L 218.2 152.8 L 220.6 151.4 L 223.0 150.2 L 225.4 149.1 L 227.7 148.2 L 230.1 147.5 L 232.5 146.8 L 234.9 146.4 L 237.3 146.1 L 239.6 145.9 L 242.0 145.8 L 244.4 145.9 L 246.8 146.1 L 249.2 146.4 L 251.5 146.8 L 253.9 147.3 L 256.3 147.9 L 258.7 148.6 L 261.0 149.4 L 263.4 150.3 L 265.8 151.3 L 268.2 152.3 L 270.6 153.4 L 272.9 154.6 L 275.3 155.8 L 277.7 157.0 L 280.1 158.4 L 282.5 159.7 L 284.8 161.1 L 287.2 162.6 L 289.6 164.1 L 292.0 165.6 L 294.3 167.1 L 296.7 168.6 L 299.1 170.2 L 301.5 171.8 L 303.9 173.3 L 306.2 174.9 L 308.6 176.5 L 311.0 178.1 L 313.4 179.7 L 315.8 181.3 L 318.1 182.9 L 320.5 184.5 L 322.9 186.1 L 325.3 187.7 L 327.6 189.3 L 330.0 190.8 L 332.4 192.4 L 334.8 193.9 L 337.2 195.4 L 339.5 196.9 L 341.9 198.4 L 344.3 199.8 L 346.7 201.3 L 349.1 202.7 L 351.4 204.1 L 353.8 205.5 L 356.2 206.8 L 358.6 208.2 L 360.9 209.5 L 363.3 210.8 L 365.7 212.0 L 368.1 213.3 L 370.5 214.5 L 372.8 215.7 L 375.2 216.9 L 377.6 218.0 L 380.0 219.2 L 382.3 220.3 L 384.7 221.3 L 387.1 222.4 L 389.5 223.4 L 391.9 224.5 L 394.2 225.5 L 396.6 226.4 L 399.0 227.4 L 401.4 228.3 L 403.8 229.2 L 406.1 230.1 L 408.5 231.0 L 410.9 231.8 L 413.3 232.6 L 415.7 233.4 L 418.0 234.2 L 420.4 235.0 L 422.8 235.7 L 425.2 236.5 L 427.5 237.2 L 429.9 237.9 L 432.3 238.5 L 434.7 239.2 L 437.1 239.8 L 439.4 240.4 L 441.8 241.1 L 444.2 241.6 L 446.6 242.2 L 448.9 242.8 L 451.3 243.3 L 453.7 243.9 L 456.1 244.4 L 458.5 244.9 L 460.8 245.4 L 463.2 245.8 L 465.6 246.3 L 468.0 246.8 L 470.4 247.2 L 472.7 247.6 L 475.1 248.0 L 477.5 248.4 L 479.9 248.8 L 482.2 249.2 L 484.6 249.6 L 487.0 249.9 L 489.4 250.3 L 491.8 250.6 L 494.1 250.9 L 496.5 251.3 L 498.9 251.6 L 501.3 251.9 L 503.7 252.2 L 506.0 252.5 L 508.4 252.7 L 510.8 253.0 L 513.2 253.3 L 515.5 253.5 L 517.9 253.8 L 520.3 254.0 L 522.7 254.2 L 525.1 254.5 L 527.4 254.7 L 529.8 254.9 L 532.2 255.1 L 534.6 255.3 L 537.0 255.5 L 539.3 255.7 L 541.7 255.9 L 544.1 256.1 L 546.5 256.2 L 548.8 256.4 L 551.2 256.6 L 553.6 256.7 L 556.0 256.9 L 558.4 257.0 L 560.7 257.2 L 563.1 257.3 L 565.5 257.4 L 567.9 257.6 L 570.3 257.7 L 572.6 257.8 L 575.0 258.0 L 577.4 258.1 L 579.8 258.2 L 582.1 258.3 L 584.5 258.4 L 586.9 258.5 L 589.3 258.6 L 591.7 258.7 L 594.0 258.8 L 596.4 258.9 L 598.8 259.0 L 601.2 259.1 L 603.6 259.2 L 605.9 259.2 L 608.3 259.3 L 610.7 259.4 L 613.1 259.5 L 615.4 259.5 L 617.8 259.6 L 620.2 259.7 L 622.6 259.8 L 625.0 259.8 L 627.3 259.9 L 629.7 259.9 L 632.1 260.0 L 634.5 260.1 L 636.9 260.1 L 639.2 260.2 L 641.6 260.2 L 644.0 260.3 L 646.4 260.3 L 648.8 260.4 L 651.1 260.4 L 653.5 260.5 L 655.9 260.5 L 658.3 260.5 L 660.6 260.6 L 663.0 260.6 L 665.4 260.7 L 667.8 260.7 L 670.2 260.7 L 672.5 260.8 L 674.9 260.8 L 677.3 260.8 L 679.7 260.9 L 682.1 260.9 L 684.4 260.9 L 686.8 261.0 L 689.2 261.0 L 691.6 261.0 L 693.9 261.1 L 696.3 261.1 L 698.7 261.1 L 701.1 261.1 L 703.5 261.2 L 705.8 261.2 L 708.2 261.2 L 710.6 261.2 L 713.0 261.3 L 715.4 261.3 L 717.7 261.3 L 720.1 261.3 L 722.5 261.3 L 724.9 261.3 L 727.2 261.4 L 729.6 261.4 L 732.0 261.4" fill="none" stroke="#58a6ff" stroke-width="2.6" stroke-dasharray="742" stroke-dashoffset="742"><animate attributeName="stroke-dashoffset" dur="7.0s" repeatCount="indefinite" values="742;0;0;742" keyTimes="0;0.3;0.9;1"/></path>
<line x1="292.4" y1="102" x2="292.4" y2="262" stroke="#6e7681" stroke-width="1.3" stroke-dasharray="4 4"/>
<rect x="240.4" y="94" width="104" height="20" rx="5" fill="#0d1117"/>
<text x="292.4" y="108" font-size="11.5" fill="#8b949e" text-anchor="middle">mean 238 ms</text>
<line x1="242.0" y1="147.8" x2="462" y2="146" stroke="#58a6ff" stroke-width="1.2" opacity="0.7"/>
<text x="470" y="150" font-size="12.5" fill="#58a6ff">Typer+ samples this exact</text>
<text x="470" y="168" font-size="12.5" fill="#58a6ff">shape (ex-Gaussian)</text>
<rect x="600" y="76" width="13" height="13" rx="2" fill="#58a6ff"/><text x="620" y="87" font-size="12.5" fill="#e6edf3">a person</text>
<rect x="600" y="98" width="13" height="13" rx="2" fill="#f85149"/><text x="620" y="109" font-size="12.5" fill="#e6edf3">a naive bot</text>
<text x="24" y="322" font-size="12.5" fill="#6e7681">A person's gaps are spread and right-skewed (mean 238 ms, Dhakal). A naive bot spikes sub-50 ms.</text>
</svg>
