<svg xmlns="http://www.w3.org/2000/svg" viewBox="0 0 760 320" width="760" height="320" font-family="ui-monospace,SFMono-Regular,Menlo,Consolas,monospace">
<rect x="1" y="1" width="758" height="318" rx="14" fill="#0d1117" stroke="#30363d" stroke-width="1"/>
<text x="24" y="34" font-size="16" font-weight="700" fill="#e6edf3">Inter-key timing: a person vs a bot</text>
<line x1="24" y1="48" x2="736" y2="48" stroke="#21262d" stroke-width="1"/>
<line x1="70.00" y1="70" x2="70.00" y2="270" stroke="#21262d" stroke-width="1"/>
<line x1="164.29" y1="70" x2="164.29" y2="270" stroke="#21262d" stroke-width="1"/>
<line x1="258.57" y1="70" x2="258.57" y2="270" stroke="#21262d" stroke-width="1"/>
<line x1="352.86" y1="70" x2="352.86" y2="270" stroke="#21262d" stroke-width="1"/>
<line x1="447.14" y1="70" x2="447.14" y2="270" stroke="#21262d" stroke-width="1"/>
<line x1="541.43" y1="70" x2="541.43" y2="270" stroke="#21262d" stroke-width="1"/>
<line x1="635.71" y1="70" x2="635.71" y2="270" stroke="#21262d" stroke-width="1"/>
<line x1="730.00" y1="70" x2="730.00" y2="270" stroke="#21262d" stroke-width="1"/>
<line x1="70" y1="220.00" x2="730" y2="220.00" stroke="#21262d" stroke-width="1"/>
<line x1="70" y1="170.00" x2="730" y2="170.00" stroke="#21262d" stroke-width="1"/>
<line x1="70" y1="120.00" x2="730" y2="120.00" stroke="#21262d" stroke-width="1"/>
<rect x="70.00" y="70" width="47.14" height="200" fill="#f85149" opacity="0.10"/>
<line x1="70" y1="270" x2="730" y2="270" stroke="#6e7681" stroke-width="1.5"/>
<line x1="70" y1="70" x2="70" y2="270" stroke="#6e7681" stroke-width="1.5"/>
<text x="70.00" y="287" font-size="11" fill="#6e7681" text-anchor="middle">0</text>
<text x="164.29" y="287" font-size="11" fill="#6e7681" text-anchor="middle">100</text>
<text x="258.57" y="287" font-size="11" fill="#6e7681" text-anchor="middle">200</text>
<text x="352.86" y="287" font-size="11" fill="#6e7681" text-anchor="middle">300</text>
<text x="447.14" y="287" font-size="11" fill="#6e7681" text-anchor="middle">400</text>
<text x="541.43" y="287" font-size="11" fill="#6e7681" text-anchor="middle">500</text>
<text x="635.71" y="287" font-size="11" fill="#6e7681" text-anchor="middle">600</text>
<text x="730.00" y="287" font-size="11" fill="#6e7681" text-anchor="middle">700</text>
<text x="400.0" y="306" font-size="12" fill="#8b949e" text-anchor="middle">inter-key interval (milliseconds)</text>
<text x="26" y="170" font-size="12" fill="#8b949e" text-anchor="middle" transform="rotate(-90 26 170)">how often</text>
<path d="M 70.00,270.00 L 70.00,270.00 L 70.94,270.00 L 71.89,270.00 L 72.83,270.00 L 73.77,270.00 L 74.71,270.00 L 75.66,270.00 L 76.60,270.00 L 77.54,270.00 L 78.49,270.00 L 79.43,270.00 L 80.37,270.00 L 81.31,270.00 L 82.26,270.00 L 83.20,270.00 L 84.14,270.00 L 85.09,270.00 L 86.03,270.00 L 86.97,270.00 L 87.91,270.00 L 88.86,270.00 L 89.80,270.00 L 90.74,270.00 L 91.69,270.00 L 92.63,270.00 L 93.57,270.00 L 94.51,270.00 L 95.46,270.00 L 96.40,270.00 L 97.34,270.00 L 98.29,270.00 L 99.23,270.00 L 100.17,270.00 L 101.11,270.00 L 102.06,270.00 L 103.00,270.00 L 103.94,270.00 L 104.89,270.00 L 105.83,270.00 L 106.77,270.00 L 107.71,270.00 L 108.66,270.00 L 109.60,270.00 L 110.54,270.00 L 111.49,270.00 L 112.43,270.00 L 113.37,270.00 L 114.31,270.00 L 115.26,270.00 L 116.20,270.00 L 117.14,270.00 L 118.09,270.00 L 119.03,270.00 L 119.97,270.00 L 120.91,270.00 L 121.86,269.99 L 122.80,269.99 L 123.74,269.99 L 124.69,269.99 L 125.63,269.99 L 126.57,269.99 L 127.51,269.98 L 128.46,269.98 L 129.40,269.98 L 130.34,269.97 L 131.29,269.97 L 132.23,269.96 L 133.17,269.96 L 134.11,269.95 L 135.06,269.94 L 136.00,269.93 L 136.94,269.92 L 137.89,269.91 L 138.83,269.89 L 139.77,269.87 L 140.71,269.85 L 141.66,269.83 L 142.60,269.81 L 143.54,269.78 L 144.49,269.74 L 145.43,269.71 L 146.37,269.66 L 147.31,269.62 L 148.26,269.56 L 149.20,269.50 L 150.14,269.43 L 151.09,269.35 L 152.03,269.27 L 152.97,269.17 L 153.91,269.06 L 154.86,268.94 L 155.80,268.81 L 156.74,268.66 L 157.69,268.50 L 158.63,268.31 L 159.57,268.11 L 160.51,267.89 L 161.46,267.65 L 162.40,267.38 L 163.34,267.09 L 164.29,266.76 L 165.23,266.41 L 166.17,266.03 L 167.11,265.61 L 168.06,265.16 L 169.00,264.67 L 169.94,264.13 L 170.89,263.55 L 171.83,262.93 L 172.77,262.26 L 173.71,261.54 L 174.66,260.77 L 175.60,259.94 L 176.54,259.05 L 177.49,258.10 L 178.43,257.09 L 179.37,256.02 L 180.31,254.88 L 181.26,253.67 L 182.20,252.39 L 183.14,251.04 L 184.09,249.62 L 185.03,248.12 L 185.97,246.55 L 186.91,244.90 L 187.86,243.17 L 188.80,241.37 L 189.74,239.49 L 190.69,237.53 L 191.63,235.50 L 192.57,233.39 L 193.51,231.21 L 194.46,228.96 L 195.40,226.64 L 196.34,224.26 L 197.29,221.81 L 198.23,219.29 L 199.17,216.72 L 200.11,214.10 L 201.06,211.43 L 202.00,208.71 L 202.94,205.96 L 203.89,203.16 L 204.83,200.34 L 205.77,197.50 L 206.71,194.63 L 207.66,191.76 L 208.60,188.88 L 209.54,185.99 L 210.49,183.12 L 211.43,180.26 L 212.37,177.42 L 213.31,174.60 L 214.26,171.82 L 215.20,169.07 L 216.14,166.37 L 217.09,163.73 L 218.03,161.14 L 218.97,158.61 L 219.91,156.15 L 220.86,153.76 L 221.80,151.46 L 222.74,149.23 L 223.69,147.10 L 224.63,145.05 L 225.57,143.10 L 226.51,141.25 L 227.46,139.50 L 228.40,137.85 L 229.34,136.31 L 230.29,134.88 L 231.23,133.55 L 232.17,132.34 L 233.11,131.23 L 234.06,130.23 L 235.00,129.34 L 235.94,128.56 L 236.89,127.89 L 237.83,127.32 L 238.77,126.86 L 239.71,126.50 L 240.66,126.23 L 241.60,126.07 L 242.54,126.00 L 243.49,126.02 L 244.43,126.13 L 245.37,126.33 L 246.31,126.61 L 247.26,126.96 L 248.20,127.39 L 249.14,127.89 L 250.09,128.46 L 251.03,129.10 L 251.97,129.79 L 252.91,130.54 L 253.86,131.34 L 254.80,132.19 L 255.74,133.09 L 256.69,134.03 L 257.63,135.00 L 258.57,136.01 L 259.51,137.06 L 260.46,138.13 L 261.40,139.23 L 262.34,140.35 L 263.29,141.50 L 264.23,142.66 L 265.17,143.84 L 266.11,145.03 L 267.06,146.23 L 268.00,147.44 L 268.94,148.66 L 269.89,149.88 L 270.83,151.11 L 271.77,152.33 L 272.71,153.56 L 273.66,154.79 L 274.60,156.02 L 275.54,157.24 L 276.49,158.46 L 277.43,159.68 L 278.37,160.89 L 279.31,162.09 L 280.26,163.29 L 281.20,164.47 L 282.14,165.65 L 283.09,166.82 L 284.03,167.98 L 284.97,169.14 L 285.91,170.28 L 286.86,171.41 L 287.80,172.53 L 288.74,173.64 L 289.69,174.74 L 290.63,175.83 L 291.57,176.91 L 292.51,177.98 L 293.46,179.03 L 294.40,180.08 L 295.34,181.11 L 296.29,182.13 L 297.23,183.14 L 298.17,184.14 L 299.11,185.13 L 300.06,186.11 L 301.00,187.08 L 301.94,188.04 L 302.89,188.98 L 303.83,189.92 L 304.77,190.84 L 305.71,191.76 L 306.66,192.66 L 307.60,193.55 L 308.54,194.44 L 309.49,195.31 L 310.43,196.17 L 311.37,197.03 L 312.31,197.87 L 313.26,198.70 L 314.20,199.53 L 315.14,200.34 L 316.09,201.15 L 317.03,201.94 L 317.97,202.73 L 318.91,203.51 L 319.86,204.27 L 320.80,205.03 L 321.74,205.79 L 322.69,206.53 L 323.63,207.26 L 324.57,207.99 L 325.51,208.70 L 326.46,209.41 L 327.40,210.11 L 328.34,210.81 L 329.29,211.49 L 330.23,212.17 L 331.17,212.83 L 332.11,213.50 L 333.06,214.15 L 334.00,214.79 L 334.94,215.43 L 335.89,216.06 L 336.83,216.69 L 337.77,217.30 L 338.71,217.91 L 339.66,218.51 L 340.60,219.11 L 341.54,219.70 L 342.49,220.28 L 343.43,220.85 L 344.37,221.42 L 345.31,221.98 L 346.26,222.54 L 347.20,223.09 L 348.14,223.63 L 349.09,224.17 L 350.03,224.70 L 350.97,225.22 L 351.91,225.74 L 352.86,226.25 L 353.80,226.76 L 354.74,227.25 L 355.69,227.75 L 356.63,228.24 L 357.57,228.72 L 358.51,229.20 L 359.46,229.67 L 360.40,230.14 L 361.34,230.60 L 362.29,231.05 L 363.23,231.50 L 364.17,231.95 L 365.11,232.39 L 366.06,232.82 L 367.00,233.25 L 367.94,233.68 L 368.89,234.10 L 369.83,234.51 L 370.77,234.92 L 371.71,235.33 L 372.66,235.73 L 373.60,236.12 L 374.54,236.52 L 375.49,236.90 L 376.43,237.29 L 377.37,237.66 L 378.31,238.04 L 379.26,238.41 L 380.20,238.77 L 381.14,239.13 L 382.09,239.49 L 383.03,239.84 L 383.97,240.19 L 384.91,240.54 L 385.86,240.88 L 386.80,241.21 L 387.74,241.55 L 388.69,241.88 L 389.63,242.20 L 390.57,242.52 L 391.51,242.84 L 392.46,243.15 L 393.40,243.46 L 394.34,243.77 L 395.29,244.07 L 396.23,244.37 L 397.17,244.67 L 398.11,244.96 L 399.06,245.25 L 400.00,245.54 L 400.94,245.82 L 401.89,246.10 L 402.83,246.38 L 403.77,246.65 L 404.71,246.92 L 405.66,247.19 L 406.60,247.45 L 407.54,247.71 L 408.49,247.97 L 409.43,248.22 L 410.37,248.48 L 411.31,248.72 L 412.26,248.97 L 413.20,249.21 L 414.14,249.45 L 415.09,249.69 L 416.03,249.93 L 416.97,250.16 L 417.91,250.39 L 418.86,250.61 L 419.80,250.84 L 420.74,251.06 L 421.69,251.28 L 422.63,251.49 L 423.57,251.71 L 424.51,251.92 L 425.46,252.13 L 426.40,252.34 L 427.34,252.54 L 428.29,252.74 L 429.23,252.94 L 430.17,253.14 L 431.11,253.33 L 432.06,253.53 L 433.00,253.72 L 433.94,253.91 L 434.89,254.09 L 435.83,254.27 L 436.77,254.46 L 437.71,254.64 L 438.66,254.81 L 439.60,254.99 L 440.54,255.16 L 441.49,255.33 L 442.43,255.50 L 443.37,255.67 L 444.31,255.84 L 445.26,256.00 L 446.20,256.16 L 447.14,256.32 L 448.09,256.48 L 449.03,256.64 L 449.97,256.79 L 450.91,256.94 L 451.86,257.10 L 452.80,257.24 L 453.74,257.39 L 454.69,257.54 L 455.63,257.68 L 456.57,257.82 L 457.51,257.97 L 458.46,258.10 L 459.40,258.24 L 460.34,258.38 L 461.29,258.51 L 462.23,258.64 L 463.17,258.78 L 464.11,258.91 L 465.06,259.03 L 466.00,259.16 L 466.94,259.29 L 467.89,259.41 L 468.83,259.53 L 469.77,259.65 L 470.71,259.77 L 471.66,259.89 L 472.60,260.01 L 473.54,260.12 L 474.49,260.24 L 475.43,260.35 L 476.37,260.46 L 477.31,260.57 L 478.26,260.68 L 479.20,260.79 L 480.14,260.90 L 481.09,261.00 L 482.03,261.11 L 482.97,261.21 L 483.91,261.31 L 484.86,261.41 L 485.80,261.51 L 486.74,261.61 L 487.69,261.70 L 488.63,261.80 L 489.57,261.90 L 490.51,261.99 L 491.46,262.08 L 492.40,262.17 L 493.34,262.26 L 494.29,262.35 L 495.23,262.44 L 496.17,262.53 L 497.11,262.62 L 498.06,262.70 L 499.00,262.78 L 499.94,262.87 L 500.89,262.95 L 501.83,263.03 L 502.77,263.11 L 503.71,263.19 L 504.66,263.27 L 505.60,263.35 L 506.54,263.43 L 507.49,263.50 L 508.43,263.58 L 509.37,263.65 L 510.31,263.72 L 511.26,263.80 L 512.20,263.87 L 513.14,263.94 L 514.09,264.01 L 515.03,264.08 L 515.97,264.15 L 516.91,264.22 L 517.86,264.28 L 518.80,264.35 L 519.74,264.41 L 520.69,264.48 L 521.63,264.54 L 522.57,264.60 L 523.51,264.67 L 524.46,264.73 L 525.40,264.79 L 526.34,264.85 L 527.29,264.91 L 528.23,264.97 L 529.17,265.03 L 530.11,265.08 L 531.06,265.14 L 532.00,265.20 L 532.94,265.25 L 533.89,265.31 L 534.83,265.36 L 535.77,265.42 L 536.71,265.47 L 537.66,265.52 L 538.60,265.57 L 539.54,265.62 L 540.49,265.67 L 541.43,265.72 L 542.37,265.77 L 543.31,265.82 L 544.26,265.87 L 545.20,265.92 L 546.14,265.97 L 547.09,266.01 L 548.03,266.06 L 548.97,266.10 L 549.91,266.15 L 550.86,266.19 L 551.80,266.24 L 552.74,266.28 L 553.69,266.32 L 554.63,266.37 L 555.57,266.41 L 556.51,266.45 L 557.46,266.49 L 558.40,266.53 L 559.34,266.57 L 560.29,266.61 L 561.23,266.65 L 562.17,266.69 L 563.11,266.73 L 564.06,266.77 L 565.00,266.80 L 565.94,266.84 L 566.89,266.88 L 567.83,266.91 L 568.77,266.95 L 569.71,266.98 L 570.66,267.02 L 571.60,267.05 L 572.54,267.09 L 573.49,267.12 L 574.43,267.15 L 575.37,267.19 L 576.31,267.22 L 577.26,267.25 L 578.20,267.28 L 579.14,267.31 L 580.09,267.35 L 581.03,267.38 L 581.97,267.41 L 582.91,267.44 L 583.86,267.47 L 584.80,267.50 L 585.74,267.52 L 586.69,267.55 L 587.63,267.58 L 588.57,267.61 L 589.51,267.64 L 590.46,267.66 L 591.40,267.69 L 592.34,267.72 L 593.29,267.74 L 594.23,267.77 L 595.17,267.80 L 596.11,267.82 L 597.06,267.85 L 598.00,267.87 L 598.94,267.90 L 599.89,267.92 L 600.83,267.94 L 601.77,267.97 L 602.71,267.99 L 603.66,268.02 L 604.60,268.04 L 605.54,268.06 L 606.49,268.08 L 607.43,268.11 L 608.37,268.13 L 609.31,268.15 L 610.26,268.17 L 611.20,268.19 L 612.14,268.21 L 613.09,268.23 L 614.03,268.25 L 614.97,268.27 L 615.91,268.29 L 616.86,268.31 L 617.80,268.33 L 618.74,268.35 L 619.69,268.37 L 620.63,268.39 L 621.57,268.41 L 622.51,268.43 L 623.46,268.45 L 624.40,268.46 L 625.34,268.48 L 626.29,268.50 L 627.23,268.52 L 628.17,268.53 L 629.11,268.55 L 630.06,268.57 L 631.00,268.58 L 631.94,268.60 L 632.89,268.62 L 633.83,268.63 L 634.77,268.65 L 635.71,268.66 L 636.66,268.68 L 637.60,268.69 L 638.54,268.71 L 639.49,268.72 L 640.43,268.74 L 641.37,268.75 L 642.31,268.77 L 643.26,268.78 L 644.20,268.80 L 645.14,268.81 L 646.09,268.82 L 647.03,268.84 L 647.97,268.85 L 648.91,268.86 L 649.86,268.88 L 650.80,268.89 L 651.74,268.90 L 652.69,268.92 L 653.63,268.93 L 654.57,268.94 L 655.51,268.95 L 656.46,268.97 L 657.40,268.98 L 658.34,268.99 L 659.29,269.00 L 660.23,269.01 L 661.17,269.02 L 662.11,269.03 L 663.06,269.05 L 664.00,269.06 L 664.94,269.07 L 665.89,269.08 L 666.83,269.09 L 667.77,269.10 L 668.71,269.11 L 669.66,269.12 L 670.60,269.13 L 671.54,269.14 L 672.49,269.15 L 673.43,269.16 L 674.37,269.17 L 675.31,269.18 L 676.26,269.19 L 677.20,269.20 L 678.14,269.21 L 679.09,269.22 L 680.03,269.23 L 680.97,269.24 L 681.91,269.24 L 682.86,269.25 L 683.80,269.26 L 684.74,269.27 L 685.69,269.28 L 686.63,269.29 L 687.57,269.29 L 688.51,269.30 L 689.46,269.31 L 690.40,269.32 L 691.34,269.33 L 692.29,269.33 L 693.23,269.34 L 694.17,269.35 L 695.11,269.36 L 696.06,269.36 L 697.00,269.37 L 697.94,269.38 L 698.89,269.39 L 699.83,269.39 L 700.77,269.40 L 701.71,269.41 L 702.66,269.41 L 703.60,269.42 L 704.54,269.43 L 705.49,269.43 L 706.43,269.44 L 707.37,269.45 L 708.31,269.45 L 709.26,269.46 L 710.20,269.47 L 711.14,269.47 L 712.09,269.48 L 713.03,269.48 L 713.97,269.49 L 714.91,269.50 L 715.86,269.50 L 716.80,269.51 L 717.74,269.51 L 718.69,269.52 L 719.63,269.53 L 720.57,269.53 L 721.51,269.54 L 722.46,269.54 L 723.40,269.55 L 724.34,269.55 L 725.29,269.56 L 726.23,269.56 L 727.17,269.57 L 728.11,269.57 L 729.06,269.58 L 730.00,269.58 L 730.00,270.00 Z" fill="#58a6ff" opacity="0.18"/>
<path d="M 70.00,270.00 L 70.00,270.00 L 70.94,270.00 L 71.89,270.00 L 72.83,270.00 L 73.77,270.00 L 74.71,270.00 L 75.66,270.00 L 76.60,270.00 L 77.54,270.00 L 78.49,270.00 L 79.43,270.00 L 80.37,270.00 L 81.31,270.00 L 82.26,270.00 L 83.20,270.00 L 84.14,270.00 L 85.09,270.00 L 86.03,270.00 L 86.97,270.00 L 87.91,270.00 L 88.86,270.00 L 89.80,270.00 L 90.74,270.00 L 91.69,269.99 L 92.63,269.98 L 93.57,269.97 L 94.51,269.94 L 95.46,269.88 L 96.40,269.77 L 97.34,269.58 L 98.29,269.27 L 99.23,268.74 L 100.17,267.89 L 101.11,266.57 L 102.06,264.57 L 103.00,261.65 L 103.94,257.51 L 104.89,251.83 L 105.83,244.29 L 106.77,234.61 L 107.71,222.62 L 108.66,208.32 L 109.60,191.89 L 110.54,173.80 L 111.49,154.76 L 112.43,135.74 L 113.37,117.86 L 114.31,102.33 L 115.26,90.27 L 116.20,82.62 L 117.14,80.00 L 118.09,82.62 L 119.03,90.27 L 119.97,102.33 L 120.91,117.86 L 121.86,135.74 L 122.80,154.76 L 123.74,173.80 L 124.69,191.89 L 125.63,208.32 L 126.57,222.62 L 127.51,234.61 L 128.46,244.29 L 129.40,251.83 L 130.34,257.51 L 131.29,261.65 L 132.23,264.57 L 133.17,266.57 L 134.11,267.89 L 135.06,268.74 L 136.00,269.27 L 136.94,269.58 L 137.89,269.77 L 138.83,269.88 L 139.77,269.94 L 140.71,269.97 L 141.66,269.98 L 142.60,269.99 L 143.54,270.00 L 144.49,270.00 L 145.43,270.00 L 146.37,270.00 L 147.31,270.00 L 148.26,270.00 L 149.20,270.00 L 150.14,270.00 L 151.09,270.00 L 152.03,270.00 L 152.97,270.00 L 153.91,270.00 L 154.86,270.00 L 155.80,270.00 L 156.74,270.00 L 157.69,270.00 L 158.63,270.00 L 159.57,270.00 L 160.51,270.00 L 161.46,270.00 L 162.40,270.00 L 163.34,270.00 L 164.29,270.00 L 165.23,270.00 L 166.17,270.00 L 167.11,270.00 L 168.06,270.00 L 169.00,270.00 L 169.94,270.00 L 170.89,270.00 L 171.83,270.00 L 172.77,270.00 L 173.71,270.00 L 174.66,270.00 L 175.60,270.00 L 176.54,270.00 L 177.49,270.00 L 178.43,270.00 L 179.37,270.00 L 180.31,270.00 L 181.26,270.00 L 182.20,270.00 L 183.14,270.00 L 184.09,270.00 L 185.03,270.00 L 185.97,270.00 L 186.91,270.00 L 187.86,270.00 L 188.80,270.00 L 189.74,270.00 L 190.69,270.00 L 191.63,270.00 L 192.57,270.00 L 193.51,270.00 L 194.46,270.00 L 195.40,270.00 L 196.34,270.00 L 197.29,270.00 L 198.23,270.00 L 199.17,270.00 L 200.11,270.00 L 201.06,270.00 L 202.00,270.00 L 202.94,270.00 L 203.89,270.00 L 204.83,270.00 L 205.77,270.00 L 206.71,270.00 L 207.66,270.00 L 208.60,270.00 L 209.54,270.00 L 210.49,270.00 L 211.43,270.00 L 212.37,270.00 L 213.31,270.00 L 214.26,270.00 L 215.20,270.00 L 216.14,270.00 L 217.09,270.00 L 218.03,270.00 L 218.97,270.00 L 219.91,270.00 L 220.86,270.00 L 221.80,270.00 L 222.74,270.00 L 223.69,270.00 L 224.63,270.00 L 225.57,270.00 L 226.51,270.00 L 227.46,270.00 L 228.40,270.00 L 229.34,270.00 L 230.29,270.00 L 231.23,270.00 L 232.17,270.00 L 233.11,270.00 L 234.06,270.00 L 235.00,270.00 L 235.94,270.00 L 236.89,270.00 L 237.83,270.00 L 238.77,270.00 L 239.71,270.00 L 240.66,270.00 L 241.60,270.00 L 242.54,270.00 L 243.49,270.00 L 244.43,270.00 L 245.37,270.00 L 246.31,270.00 L 247.26,270.00 L 248.20,269.99 L 249.14,269.99 L 250.09,269.99 L 251.03,269.99 L 251.97,269.98 L 252.91,269.98 L 253.86,269.97 L 254.80,269.96 L 255.74,269.94 L 256.69,269.93 L 257.63,269.90 L 258.57,269.88 L 259.51,269.84 L 260.46,269.79 L 261.40,269.74 L 262.34,269.67 L 263.29,269.58 L 264.23,269.48 L 265.17,269.34 L 266.11,269.19 L 267.06,268.99 L 268.00,268.76 L 268.94,268.49 L 269.89,268.16 L 270.83,267.77 L 271.77,267.31 L 272.71,266.78 L 273.66,266.16 L 274.60,265.44 L 275.54,264.62 L 276.49,263.69 L 277.43,262.62 L 278.37,261.42 L 279.31,260.08 L 280.26,258.59 L 281.20,256.94 L 282.14,255.12 L 283.09,253.14 L 284.03,250.99 L 284.97,248.68 L 285.91,246.21 L 286.86,243.58 L 287.80,240.82 L 288.74,237.93 L 289.69,234.94 L 290.63,231.86 L 291.57,228.72 L 292.51,225.55 L 293.46,222.38 L 294.40,219.24 L 295.34,216.18 L 296.29,213.22 L 297.23,210.40 L 298.17,207.75 L 299.11,205.33 L 300.06,203.14 L 301.00,201.24 L 301.94,199.65 L 302.89,198.38 L 303.83,197.46 L 304.77,196.90 L 305.71,196.71 L 306.66,196.90 L 307.60,197.46 L 308.54,198.38 L 309.49,199.65 L 310.43,201.24 L 311.37,203.14 L 312.31,205.33 L 313.26,207.75 L 314.20,210.40 L 315.14,213.22 L 316.09,216.18 L 317.03,219.24 L 317.97,222.38 L 318.91,225.55 L 319.86,228.72 L 320.80,231.86 L 321.74,234.94 L 322.69,237.93 L 323.63,240.82 L 324.57,243.58 L 325.51,246.21 L 326.46,248.68 L 327.40,250.99 L 328.34,253.14 L 329.29,255.12 L 330.23,256.94 L 331.17,258.59 L 332.11,260.08 L 333.06,261.42 L 334.00,262.62 L 334.94,263.69 L 335.89,264.62 L 336.83,265.44 L 337.77,266.16 L 338.71,266.78 L 339.66,267.31 L 340.60,267.77 L 341.54,268.16 L 342.49,268.49 L 343.43,268.76 L 344.37,268.99 L 345.31,269.19 L 346.26,269.34 L 347.20,269.48 L 348.14,269.58 L 349.09,269.67 L 350.03,269.74 L 350.97,269.79 L 351.91,269.84 L 352.86,269.88 L 353.80,269.90 L 354.74,269.93 L 355.69,269.94 L 356.63,269.96 L 357.57,269.97 L 358.51,269.98 L 359.46,269.98 L 360.40,269.99 L 361.34,269.99 L 362.29,269.99 L 363.23,269.99 L 364.17,270.00 L 365.11,270.00 L 366.06,270.00 L 367.00,270.00 L 367.94,270.00 L 368.89,270.00 L 369.83,270.00 L 370.77,270.00 L 371.71,270.00 L 372.66,270.00 L 373.60,270.00 L 374.54,270.00 L 375.49,270.00 L 376.43,270.00 L 377.37,270.00 L 378.31,270.00 L 379.26,270.00 L 380.20,270.00 L 381.14,270.00 L 382.09,270.00 L 383.03,270.00 L 383.97,270.00 L 384.91,270.00 L 385.86,270.00 L 386.80,270.00 L 387.74,270.00 L 388.69,270.00 L 389.63,270.00 L 390.57,270.00 L 391.51,270.00 L 392.46,270.00 L 393.40,270.00 L 394.34,270.00 L 395.29,270.00 L 396.23,270.00 L 397.17,270.00 L 398.11,270.00 L 399.06,270.00 L 400.00,270.00 L 400.94,270.00 L 401.89,270.00 L 402.83,270.00 L 403.77,270.00 L 404.71,270.00 L 405.66,270.00 L 406.60,270.00 L 407.54,270.00 L 408.49,270.00 L 409.43,270.00 L 410.37,270.00 L 411.31,270.00 L 412.26,270.00 L 413.20,270.00 L 414.14,270.00 L 415.09,270.00 L 416.03,270.00 L 416.97,270.00 L 417.91,270.00 L 418.86,270.00 L 419.80,270.00 L 420.74,270.00 L 421.69,270.00 L 422.63,270.00 L 423.57,270.00 L 424.51,270.00 L 425.46,270.00 L 426.40,270.00 L 427.34,270.00 L 428.29,270.00 L 429.23,270.00 L 430.17,270.00 L 431.11,270.00 L 432.06,270.00 L 433.00,270.00 L 433.94,270.00 L 434.89,270.00 L 435.83,270.00 L 436.77,270.00 L 437.71,270.00 L 438.66,270.00 L 439.60,270.00 L 440.54,270.00 L 441.49,270.00 L 442.43,270.00 L 443.37,270.00 L 444.31,270.00 L 445.26,270.00 L 446.20,270.00 L 447.14,270.00 L 448.09,270.00 L 449.03,270.00 L 449.97,270.00 L 450.91,270.00 L 451.86,270.00 L 452.80,270.00 L 453.74,270.00 L 454.69,270.00 L 455.63,270.00 L 456.57,270.00 L 457.51,270.00 L 458.46,270.00 L 459.40,270.00 L 460.34,270.00 L 461.29,270.00 L 462.23,270.00 L 463.17,270.00 L 464.11,270.00 L 465.06,270.00 L 466.00,270.00 L 466.94,270.00 L 467.89,270.00 L 468.83,270.00 L 469.77,270.00 L 470.71,270.00 L 471.66,270.00 L 472.60,270.00 L 473.54,270.00 L 474.49,270.00 L 475.43,270.00 L 476.37,270.00 L 477.31,270.00 L 478.26,270.00 L 479.20,270.00 L 480.14,270.00 L 481.09,270.00 L 482.03,270.00 L 482.97,270.00 L 483.91,270.00 L 484.86,270.00 L 485.80,270.00 L 486.74,270.00 L 487.69,270.00 L 488.63,270.00 L 489.57,270.00 L 490.51,270.00 L 491.46,270.00 L 492.40,270.00 L 493.34,270.00 L 494.29,270.00 L 495.23,270.00 L 496.17,270.00 L 497.11,270.00 L 498.06,270.00 L 499.00,270.00 L 499.94,270.00 L 500.89,270.00 L 501.83,270.00 L 502.77,270.00 L 503.71,270.00 L 504.66,270.00 L 505.60,270.00 L 506.54,270.00 L 507.49,270.00 L 508.43,270.00 L 509.37,270.00 L 510.31,270.00 L 511.26,270.00 L 512.20,270.00 L 513.14,270.00 L 514.09,270.00 L 515.03,270.00 L 515.97,270.00 L 516.91,270.00 L 517.86,270.00 L 518.80,270.00 L 519.74,270.00 L 520.69,270.00 L 521.63,270.00 L 522.57,270.00 L 523.51,270.00 L 524.46,270.00 L 525.40,270.00 L 526.34,270.00 L 527.29,270.00 L 528.23,270.00 L 529.17,270.00 L 530.11,270.00 L 531.06,270.00 L 532.00,270.00 L 532.94,270.00 L 533.89,270.00 L 534.83,270.00 L 535.77,270.00 L 536.71,270.00 L 537.66,270.00 L 538.60,270.00 L 539.54,270.00 L 540.49,270.00 L 541.43,270.00 L 542.37,270.00 L 543.31,270.00 L 544.26,270.00 L 545.20,270.00 L 546.14,270.00 L 547.09,270.00 L 548.03,270.00 L 548.97,270.00 L 549.91,270.00 L 550.86,270.00 L 551.80,270.00 L 552.74,270.00 L 553.69,270.00 L 554.63,270.00 L 555.57,270.00 L 556.51,270.00 L 557.46,270.00 L 558.40,270.00 L 559.34,270.00 L 560.29,270.00 L 561.23,270.00 L 562.17,270.00 L 563.11,270.00 L 564.06,270.00 L 565.00,270.00 L 565.94,270.00 L 566.89,270.00 L 567.83,270.00 L 568.77,270.00 L 569.71,270.00 L 570.66,270.00 L 571.60,270.00 L 572.54,270.00 L 573.49,270.00 L 574.43,270.00 L 575.37,270.00 L 576.31,270.00 L 577.26,270.00 L 578.20,270.00 L 579.14,270.00 L 580.09,270.00 L 581.03,270.00 L 581.97,270.00 L 582.91,270.00 L 583.86,270.00 L 584.80,270.00 L 585.74,270.00 L 586.69,270.00 L 587.63,270.00 L 588.57,270.00 L 589.51,270.00 L 590.46,270.00 L 591.40,270.00 L 592.34,270.00 L 593.29,270.00 L 594.23,270.00 L 595.17,270.00 L 596.11,270.00 L 597.06,270.00 L 598.00,270.00 L 598.94,270.00 L 599.89,270.00 L 600.83,270.00 L 601.77,270.00 L 602.71,270.00 L 603.66,270.00 L 604.60,270.00 L 605.54,270.00 L 606.49,270.00 L 607.43,270.00 L 608.37,270.00 L 609.31,270.00 L 610.26,270.00 L 611.20,270.00 L 612.14,270.00 L 613.09,270.00 L 614.03,270.00 L 614.97,270.00 L 615.91,270.00 L 616.86,270.00 L 617.80,270.00 L 618.74,270.00 L 619.69,270.00 L 620.63,270.00 L 621.57,270.00 L 622.51,270.00 L 623.46,270.00 L 624.40,270.00 L 625.34,270.00 L 626.29,270.00 L 627.23,270.00 L 628.17,270.00 L 629.11,270.00 L 630.06,270.00 L 631.00,270.00 L 631.94,270.00 L 632.89,270.00 L 633.83,270.00 L 634.77,270.00 L 635.71,270.00 L 636.66,270.00 L 637.60,270.00 L 638.54,270.00 L 639.49,270.00 L 640.43,270.00 L 641.37,270.00 L 642.31,270.00 L 643.26,270.00 L 644.20,270.00 L 645.14,270.00 L 646.09,270.00 L 647.03,270.00 L 647.97,270.00 L 648.91,270.00 L 649.86,270.00 L 650.80,270.00 L 651.74,270.00 L 652.69,270.00 L 653.63,270.00 L 654.57,270.00 L 655.51,270.00 L 656.46,270.00 L 657.40,270.00 L 658.34,270.00 L 659.29,270.00 L 660.23,270.00 L 661.17,270.00 L 662.11,270.00 L 663.06,270.00 L 664.00,270.00 L 664.94,270.00 L 665.89,270.00 L 666.83,270.00 L 667.77,270.00 L 668.71,270.00 L 669.66,270.00 L 670.60,270.00 L 671.54,270.00 L 672.49,270.00 L 673.43,270.00 L 674.37,270.00 L 675.31,270.00 L 676.26,270.00 L 677.20,270.00 L 678.14,270.00 L 679.09,270.00 L 680.03,270.00 L 680.97,270.00 L 681.91,270.00 L 682.86,270.00 L 683.80,270.00 L 684.74,270.00 L 685.69,270.00 L 686.63,270.00 L 687.57,270.00 L 688.51,270.00 L 689.46,270.00 L 690.40,270.00 L 691.34,270.00 L 692.29,270.00 L 693.23,270.00 L 694.17,270.00 L 695.11,270.00 L 696.06,270.00 L 697.00,270.00 L 697.94,270.00 L 698.89,270.00 L 699.83,270.00 L 700.77,270.00 L 701.71,270.00 L 702.66,270.00 L 703.60,270.00 L 704.54,270.00 L 705.49,270.00 L 706.43,270.00 L 707.37,270.00 L 708.31,270.00 L 709.26,270.00 L 710.20,270.00 L 711.14,270.00 L 712.09,270.00 L 713.03,270.00 L 713.97,270.00 L 714.91,270.00 L 715.86,270.00 L 716.80,270.00 L 717.74,270.00 L 718.69,270.00 L 719.63,270.00 L 720.57,270.00 L 721.51,270.00 L 722.46,270.00 L 723.40,270.00 L 724.34,270.00 L 725.29,270.00 L 726.23,270.00 L 727.17,270.00 L 728.11,270.00 L 729.06,270.00 L 730.00,270.00 L 730.00,270.00 Z" fill="#f85149" opacity="0.18"/>
<path d="M 70.00,270.00 L 70.94,270.00 L 71.89,270.00 L 72.83,270.00 L 73.77,270.00 L 74.71,270.00 L 75.66,270.00 L 76.60,270.00 L 77.54,270.00 L 78.49,270.00 L 79.43,270.00 L 80.37,270.00 L 81.31,270.00 L 82.26,270.00 L 83.20,270.00 L 84.14,270.00 L 85.09,270.00 L 86.03,270.00 L 86.97,270.00 L 87.91,270.00 L 88.86,270.00 L 89.80,270.00 L 90.74,270.00 L 91.69,270.00 L 92.63,270.00 L 93.57,270.00 L 94.51,270.00 L 95.46,270.00 L 96.40,270.00 L 97.34,270.00 L 98.29,270.00 L 99.23,270.00 L 100.17,270.00 L 101.11,270.00 L 102.06,270.00 L 103.00,270.00 L 103.94,270.00 L 104.89,270.00 L 105.83,270.00 L 106.77,270.00 L 107.71,270.00 L 108.66,270.00 L 109.60,270.00 L 110.54,270.00 L 111.49,270.00 L 112.43,270.00 L 113.37,270.00 L 114.31,270.00 L 115.26,270.00 L 116.20,270.00 L 117.14,270.00 L 118.09,270.00 L 119.03,270.00 L 119.97,270.00 L 120.91,270.00 L 121.86,269.99 L 122.80,269.99 L 123.74,269.99 L 124.69,269.99 L 125.63,269.99 L 126.57,269.99 L 127.51,269.98 L 128.46,269.98 L 129.40,269.98 L 130.34,269.97 L 131.29,269.97 L 132.23,269.96 L 133.17,269.96 L 134.11,269.95 L 135.06,269.94 L 136.00,269.93 L 136.94,269.92 L 137.89,269.91 L 138.83,269.89 L 139.77,269.87 L 140.71,269.85 L 141.66,269.83 L 142.60,269.81 L 143.54,269.78 L 144.49,269.74 L 145.43,269.71 L 146.37,269.66 L 147.31,269.62 L 148.26,269.56 L 149.20,269.50 L 150.14,269.43 L 151.09,269.35 L 152.03,269.27 L 152.97,269.17 L 153.91,269.06 L 154.86,268.94 L 155.80,268.81 L 156.74,268.66 L 157.69,268.50 L 158.63,268.31 L 159.57,268.11 L 160.51,267.89 L 161.46,267.65 L 162.40,267.38 L 163.34,267.09 L 164.29,266.76 L 165.23,266.41 L 166.17,266.03 L 167.11,265.61 L 168.06,265.16 L 169.00,264.67 L 169.94,264.13 L 170.89,263.55 L 171.83,262.93 L 172.77,262.26 L 173.71,261.54 L 174.66,260.77 L 175.60,259.94 L 176.54,259.05 L 177.49,258.10 L 178.43,257.09 L 179.37,256.02 L 180.31,254.88 L 181.26,253.67 L 182.20,252.39 L 183.14,251.04 L 184.09,249.62 L 185.03,248.12 L 185.97,246.55 L 186.91,244.90 L 187.86,243.17 L 188.80,241.37 L 189.74,239.49 L 190.69,237.53 L 191.63,235.50 L 192.57,233.39 L 193.51,231.21 L 194.46,228.96 L 195.40,226.64 L 196.34,224.26 L 197.29,221.81 L 198.23,219.29 L 199.17,216.72 L 200.11,214.10 L 201.06,211.43 L 202.00,208.71 L 202.94,205.96 L 203.89,203.16 L 204.83,200.34 L 205.77,197.50 L 206.71,194.63 L 207.66,191.76 L 208.60,188.88 L 209.54,185.99 L 210.49,183.12 L 211.43,180.26 L 212.37,177.42 L 213.31,174.60 L 214.26,171.82 L 215.20,169.07 L 216.14,166.37 L 217.09,163.73 L 218.03,161.14 L 218.97,158.61 L 219.91,156.15 L 220.86,153.76 L 221.80,151.46 L 222.74,149.23 L 223.69,147.10 L 224.63,145.05 L 225.57,143.10 L 226.51,141.25 L 227.46,139.50 L 228.40,137.85 L 229.34,136.31 L 230.29,134.88 L 231.23,133.55 L 232.17,132.34 L 233.11,131.23 L 234.06,130.23 L 235.00,129.34 L 235.94,128.56 L 236.89,127.89 L 237.83,127.32 L 238.77,126.86 L 239.71,126.50 L 240.66,126.23 L 241.60,126.07 L 242.54,126.00 L 243.49,126.02 L 244.43,126.13 L 245.37,126.33 L 246.31,126.61 L 247.26,126.96 L 248.20,127.39 L 249.14,127.89 L 250.09,128.46 L 251.03,129.10 L 251.97,129.79 L 252.91,130.54 L 253.86,131.34 L 254.80,132.19 L 255.74,133.09 L 256.69,134.03 L 257.63,135.00 L 258.57,136.01 L 259.51,137.06 L 260.46,138.13 L 261.40,139.23 L 262.34,140.35 L 263.29,141.50 L 264.23,142.66 L 265.17,143.84 L 266.11,145.03 L 267.06,146.23 L 268.00,147.44 L 268.94,148.66 L 269.89,149.88 L 270.83,151.11 L 271.77,152.33 L 272.71,153.56 L 273.66,154.79 L 274.60,156.02 L 275.54,157.24 L 276.49,158.46 L 277.43,159.68 L 278.37,160.89 L 279.31,162.09 L 280.26,163.29 L 281.20,164.47 L 282.14,165.65 L 283.09,166.82 L 284.03,167.98 L 284.97,169.14 L 285.91,170.28 L 286.86,171.41 L 287.80,172.53 L 288.74,173.64 L 289.69,174.74 L 290.63,175.83 L 291.57,176.91 L 292.51,177.98 L 293.46,179.03 L 294.40,180.08 L 295.34,181.11 L 296.29,182.13 L 297.23,183.14 L 298.17,184.14 L 299.11,185.13 L 300.06,186.11 L 301.00,187.08 L 301.94,188.04 L 302.89,188.98 L 303.83,189.92 L 304.77,190.84 L 305.71,191.76 L 306.66,192.66 L 307.60,193.55 L 308.54,194.44 L 309.49,195.31 L 310.43,196.17 L 311.37,197.03 L 312.31,197.87 L 313.26,198.70 L 314.20,199.53 L 315.14,200.34 L 316.09,201.15 L 317.03,201.94 L 317.97,202.73 L 318.91,203.51 L 319.86,204.27 L 320.80,205.03 L 321.74,205.79 L 322.69,206.53 L 323.63,207.26 L 324.57,207.99 L 325.51,208.70 L 326.46,209.41 L 327.40,210.11 L 328.34,210.81 L 329.29,211.49 L 330.23,212.17 L 331.17,212.83 L 332.11,213.50 L 333.06,214.15 L 334.00,214.79 L 334.94,215.43 L 335.89,216.06 L 336.83,216.69 L 337.77,217.30 L 338.71,217.91 L 339.66,218.51 L 340.60,219.11 L 341.54,219.70 L 342.49,220.28 L 343.43,220.85 L 344.37,221.42 L 345.31,221.98 L 346.26,222.54 L 347.20,223.09 L 348.14,223.63 L 349.09,224.17 L 350.03,224.70 L 350.97,225.22 L 351.91,225.74 L 352.86,226.25 L 353.80,226.76 L 354.74,227.25 L 355.69,227.75 L 356.63,228.24 L 357.57,228.72 L 358.51,229.20 L 359.46,229.67 L 360.40,230.14 L 361.34,230.60 L 362.29,231.05 L 363.23,231.50 L 364.17,231.95 L 365.11,232.39 L 366.06,232.82 L 367.00,233.25 L 367.94,233.68 L 368.89,234.10 L 369.83,234.51 L 370.77,234.92 L 371.71,235.33 L 372.66,235.73 L 373.60,236.12 L 374.54,236.52 L 375.49,236.90 L 376.43,237.29 L 377.37,237.66 L 378.31,238.04 L 379.26,238.41 L 380.20,238.77 L 381.14,239.13 L 382.09,239.49 L 383.03,239.84 L 383.97,240.19 L 384.91,240.54 L 385.86,240.88 L 386.80,241.21 L 387.74,241.55 L 388.69,241.88 L 389.63,242.20 L 390.57,242.52 L 391.51,242.84 L 392.46,243.15 L 393.40,243.46 L 394.34,243.77 L 395.29,244.07 L 396.23,244.37 L 397.17,244.67 L 398.11,244.96 L 399.06,245.25 L 400.00,245.54 L 400.94,245.82 L 401.89,246.10 L 402.83,246.38 L 403.77,246.65 L 404.71,246.92 L 405.66,247.19 L 406.60,247.45 L 407.54,247.71 L 408.49,247.97 L 409.43,248.22 L 410.37,248.48 L 411.31,248.72 L 412.26,248.97 L 413.20,249.21 L 414.14,249.45 L 415.09,249.69 L 416.03,249.93 L 416.97,250.16 L 417.91,250.39 L 418.86,250.61 L 419.80,250.84 L 420.74,251.06 L 421.69,251.28 L 422.63,251.49 L 423.57,251.71 L 424.51,251.92 L 425.46,252.13 L 426.40,252.34 L 427.34,252.54 L 428.29,252.74 L 429.23,252.94 L 430.17,253.14 L 431.11,253.33 L 432.06,253.53 L 433.00,253.72 L 433.94,253.91 L 434.89,254.09 L 435.83,254.27 L 436.77,254.46 L 437.71,254.64 L 438.66,254.81 L 439.60,254.99 L 440.54,255.16 L 441.49,255.33 L 442.43,255.50 L 443.37,255.67 L 444.31,255.84 L 445.26,256.00 L 446.20,256.16 L 447.14,256.32 L 448.09,256.48 L 449.03,256.64 L 449.97,256.79 L 450.91,256.94 L 451.86,257.10 L 452.80,257.24 L 453.74,257.39 L 454.69,257.54 L 455.63,257.68 L 456.57,257.82 L 457.51,257.97 L 458.46,258.10 L 459.40,258.24 L 460.34,258.38 L 461.29,258.51 L 462.23,258.64 L 463.17,258.78 L 464.11,258.91 L 465.06,259.03 L 466.00,259.16 L 466.94,259.29 L 467.89,259.41 L 468.83,259.53 L 469.77,259.65 L 470.71,259.77 L 471.66,259.89 L 472.60,260.01 L 473.54,260.12 L 474.49,260.24 L 475.43,260.35 L 476.37,260.46 L 477.31,260.57 L 478.26,260.68 L 479.20,260.79 L 480.14,260.90 L 481.09,261.00 L 482.03,261.11 L 482.97,261.21 L 483.91,261.31 L 484.86,261.41 L 485.80,261.51 L 486.74,261.61 L 487.69,261.70 L 488.63,261.80 L 489.57,261.90 L 490.51,261.99 L 491.46,262.08 L 492.40,262.17 L 493.34,262.26 L 494.29,262.35 L 495.23,262.44 L 496.17,262.53 L 497.11,262.62 L 498.06,262.70 L 499.00,262.78 L 499.94,262.87 L 500.89,262.95 L 501.83,263.03 L 502.77,263.11 L 503.71,263.19 L 504.66,263.27 L 505.60,263.35 L 506.54,263.43 L 507.49,263.50 L 508.43,263.58 L 509.37,263.65 L 510.31,263.72 L 511.26,263.80 L 512.20,263.87 L 513.14,263.94 L 514.09,264.01 L 515.03,264.08 L 515.97,264.15 L 516.91,264.22 L 517.86,264.28 L 518.80,264.35 L 519.74,264.41 L 520.69,264.48 L 521.63,264.54 L 522.57,264.60 L 523.51,264.67 L 524.46,264.73 L 525.40,264.79 L 526.34,264.85 L 527.29,264.91 L 528.23,264.97 L 529.17,265.03 L 530.11,265.08 L 531.06,265.14 L 532.00,265.20 L 532.94,265.25 L 533.89,265.31 L 534.83,265.36 L 535.77,265.42 L 536.71,265.47 L 537.66,265.52 L 538.60,265.57 L 539.54,265.62 L 540.49,265.67 L 541.43,265.72 L 542.37,265.77 L 543.31,265.82 L 544.26,265.87 L 545.20,265.92 L 546.14,265.97 L 547.09,266.01 L 548.03,266.06 L 548.97,266.10 L 549.91,266.15 L 550.86,266.19 L 551.80,266.24 L 552.74,266.28 L 553.69,266.32 L 554.63,266.37 L 555.57,266.41 L 556.51,266.45 L 557.46,266.49 L 558.40,266.53 L 559.34,266.57 L 560.29,266.61 L 561.23,266.65 L 562.17,266.69 L 563.11,266.73 L 564.06,266.77 L 565.00,266.80 L 565.94,266.84 L 566.89,266.88 L 567.83,266.91 L 568.77,266.95 L 569.71,266.98 L 570.66,267.02 L 571.60,267.05 L 572.54,267.09 L 573.49,267.12 L 574.43,267.15 L 575.37,267.19 L 576.31,267.22 L 577.26,267.25 L 578.20,267.28 L 579.14,267.31 L 580.09,267.35 L 581.03,267.38 L 581.97,267.41 L 582.91,267.44 L 583.86,267.47 L 584.80,267.50 L 585.74,267.52 L 586.69,267.55 L 587.63,267.58 L 588.57,267.61 L 589.51,267.64 L 590.46,267.66 L 591.40,267.69 L 592.34,267.72 L 593.29,267.74 L 594.23,267.77 L 595.17,267.80 L 596.11,267.82 L 597.06,267.85 L 598.00,267.87 L 598.94,267.90 L 599.89,267.92 L 600.83,267.94 L 601.77,267.97 L 602.71,267.99 L 603.66,268.02 L 604.60,268.04 L 605.54,268.06 L 606.49,268.08 L 607.43,268.11 L 608.37,268.13 L 609.31,268.15 L 610.26,268.17 L 611.20,268.19 L 612.14,268.21 L 613.09,268.23 L 614.03,268.25 L 614.97,268.27 L 615.91,268.29 L 616.86,268.31 L 617.80,268.33 L 618.74,268.35 L 619.69,268.37 L 620.63,268.39 L 621.57,268.41 L 622.51,268.43 L 623.46,268.45 L 624.40,268.46 L 625.34,268.48 L 626.29,268.50 L 627.23,268.52 L 628.17,268.53 L 629.11,268.55 L 630.06,268.57 L 631.00,268.58 L 631.94,268.60 L 632.89,268.62 L 633.83,268.63 L 634.77,268.65 L 635.71,268.66 L 636.66,268.68 L 637.60,268.69 L 638.54,268.71 L 639.49,268.72 L 640.43,268.74 L 641.37,268.75 L 642.31,268.77 L 643.26,268.78 L 644.20,268.80 L 645.14,268.81 L 646.09,268.82 L 647.03,268.84 L 647.97,268.85 L 648.91,268.86 L 649.86,268.88 L 650.80,268.89 L 651.74,268.90 L 652.69,268.92 L 653.63,268.93 L 654.57,268.94 L 655.51,268.95 L 656.46,268.97 L 657.40,268.98 L 658.34,268.99 L 659.29,269.00 L 660.23,269.01 L 661.17,269.02 L 662.11,269.03 L 663.06,269.05 L 664.00,269.06 L 664.94,269.07 L 665.89,269.08 L 666.83,269.09 L 667.77,269.10 L 668.71,269.11 L 669.66,269.12 L 670.60,269.13 L 671.54,269.14 L 672.49,269.15 L 673.43,269.16 L 674.37,269.17 L 675.31,269.18 L 676.26,269.19 L 677.20,269.20 L 678.14,269.21 L 679.09,269.22 L 680.03,269.23 L 680.97,269.24 L 681.91,269.24 L 682.86,269.25 L 683.80,269.26 L 684.74,269.27 L 685.69,269.28 L 686.63,269.29 L 687.57,269.29 L 688.51,269.30 L 689.46,269.31 L 690.40,269.32 L 691.34,269.33 L 692.29,269.33 L 693.23,269.34 L 694.17,269.35 L 695.11,269.36 L 696.06,269.36 L 697.00,269.37 L 697.94,269.38 L 698.89,269.39 L 699.83,269.39 L 700.77,269.40 L 701.71,269.41 L 702.66,269.41 L 703.60,269.42 L 704.54,269.43 L 705.49,269.43 L 706.43,269.44 L 707.37,269.45 L 708.31,269.45 L 709.26,269.46 L 710.20,269.47 L 711.14,269.47 L 712.09,269.48 L 713.03,269.48 L 713.97,269.49 L 714.91,269.50 L 715.86,269.50 L 716.80,269.51 L 717.74,269.51 L 718.69,269.52 L 719.63,269.53 L 720.57,269.53 L 721.51,269.54 L 722.46,269.54 L 723.40,269.55 L 724.34,269.55 L 725.29,269.56 L 726.23,269.56 L 727.17,269.57 L 728.11,269.57 L 729.06,269.58 L 730.00,269.58" fill="none" stroke="#58a6ff" stroke-width="2.5" stroke-linejoin="round"/>
<path d="M 70.00,270.00 L 70.94,270.00 L 71.89,270.00 L 72.83,270.00 L 73.77,270.00 L 74.71,270.00 L 75.66,270.00 L 76.60,270.00 L 77.54,270.00 L 78.49,270.00 L 79.43,270.00 L 80.37,270.00 L 81.31,270.00 L 82.26,270.00 L 83.20,270.00 L 84.14,270.00 L 85.09,270.00 L 86.03,270.00 L 86.97,270.00 L 87.91,270.00 L 88.86,270.00 L 89.80,270.00 L 90.74,270.00 L 91.69,269.99 L 92.63,269.98 L 93.57,269.97 L 94.51,269.94 L 95.46,269.88 L 96.40,269.77 L 97.34,269.58 L 98.29,269.27 L 99.23,268.74 L 100.17,267.89 L 101.11,266.57 L 102.06,264.57 L 103.00,261.65 L 103.94,257.51 L 104.89,251.83 L 105.83,244.29 L 106.77,234.61 L 107.71,222.62 L 108.66,208.32 L 109.60,191.89 L 110.54,173.80 L 111.49,154.76 L 112.43,135.74 L 113.37,117.86 L 114.31,102.33 L 115.26,90.27 L 116.20,82.62 L 117.14,80.00 L 118.09,82.62 L 119.03,90.27 L 119.97,102.33 L 120.91,117.86 L 121.86,135.74 L 122.80,154.76 L 123.74,173.80 L 124.69,191.89 L 125.63,208.32 L 126.57,222.62 L 127.51,234.61 L 128.46,244.29 L 129.40,251.83 L 130.34,257.51 L 131.29,261.65 L 132.23,264.57 L 133.17,266.57 L 134.11,267.89 L 135.06,268.74 L 136.00,269.27 L 136.94,269.58 L 137.89,269.77 L 138.83,269.88 L 139.77,269.94 L 140.71,269.97 L 141.66,269.98 L 142.60,269.99 L 143.54,270.00 L 144.49,270.00 L 145.43,270.00 L 146.37,270.00 L 147.31,270.00 L 148.26,270.00 L 149.20,270.00 L 150.14,270.00 L 151.09,270.00 L 152.03,270.00 L 152.97,270.00 L 153.91,270.00 L 154.86,270.00 L 155.80,270.00 L 156.74,270.00 L 157.69,270.00 L 158.63,270.00 L 159.57,270.00 L 160.51,270.00 L 161.46,270.00 L 162.40,270.00 L 163.34,270.00 L 164.29,270.00 L 165.23,270.00 L 166.17,270.00 L 167.11,270.00 L 168.06,270.00 L 169.00,270.00 L 169.94,270.00 L 170.89,270.00 L 171.83,270.00 L 172.77,270.00 L 173.71,270.00 L 174.66,270.00 L 175.60,270.00 L 176.54,270.00 L 177.49,270.00 L 178.43,270.00 L 179.37,270.00 L 180.31,270.00 L 181.26,270.00 L 182.20,270.00 L 183.14,270.00 L 184.09,270.00 L 185.03,270.00 L 185.97,270.00 L 186.91,270.00 L 187.86,270.00 L 188.80,270.00 L 189.74,270.00 L 190.69,270.00 L 191.63,270.00 L 192.57,270.00 L 193.51,270.00 L 194.46,270.00 L 195.40,270.00 L 196.34,270.00 L 197.29,270.00 L 198.23,270.00 L 199.17,270.00 L 200.11,270.00 L 201.06,270.00 L 202.00,270.00 L 202.94,270.00 L 203.89,270.00 L 204.83,270.00 L 205.77,270.00 L 206.71,270.00 L 207.66,270.00 L 208.60,270.00 L 209.54,270.00 L 210.49,270.00 L 211.43,270.00 L 212.37,270.00 L 213.31,270.00 L 214.26,270.00 L 215.20,270.00 L 216.14,270.00 L 217.09,270.00 L 218.03,270.00 L 218.97,270.00 L 219.91,270.00 L 220.86,270.00 L 221.80,270.00 L 222.74,270.00 L 223.69,270.00 L 224.63,270.00 L 225.57,270.00 L 226.51,270.00 L 227.46,270.00 L 228.40,270.00 L 229.34,270.00 L 230.29,270.00 L 231.23,270.00 L 232.17,270.00 L 233.11,270.00 L 234.06,270.00 L 235.00,270.00 L 235.94,270.00 L 236.89,270.00 L 237.83,270.00 L 238.77,270.00 L 239.71,270.00 L 240.66,270.00 L 241.60,270.00 L 242.54,270.00 L 243.49,270.00 L 244.43,270.00 L 245.37,270.00 L 246.31,270.00 L 247.26,270.00 L 248.20,269.99 L 249.14,269.99 L 250.09,269.99 L 251.03,269.99 L 251.97,269.98 L 252.91,269.98 L 253.86,269.97 L 254.80,269.96 L 255.74,269.94 L 256.69,269.93 L 257.63,269.90 L 258.57,269.88 L 259.51,269.84 L 260.46,269.79 L 261.40,269.74 L 262.34,269.67 L 263.29,269.58 L 264.23,269.48 L 265.17,269.34 L 266.11,269.19 L 267.06,268.99 L 268.00,268.76 L 268.94,268.49 L 269.89,268.16 L 270.83,267.77 L 271.77,267.31 L 272.71,266.78 L 273.66,266.16 L 274.60,265.44 L 275.54,264.62 L 276.49,263.69 L 277.43,262.62 L 278.37,261.42 L 279.31,260.08 L 280.26,258.59 L 281.20,256.94 L 282.14,255.12 L 283.09,253.14 L 284.03,250.99 L 284.97,248.68 L 285.91,246.21 L 286.86,243.58 L 287.80,240.82 L 288.74,237.93 L 289.69,234.94 L 290.63,231.86 L 291.57,228.72 L 292.51,225.55 L 293.46,222.38 L 294.40,219.24 L 295.34,216.18 L 296.29,213.22 L 297.23,210.40 L 298.17,207.75 L 299.11,205.33 L 300.06,203.14 L 301.00,201.24 L 301.94,199.65 L 302.89,198.38 L 303.83,197.46 L 304.77,196.90 L 305.71,196.71 L 306.66,196.90 L 307.60,197.46 L 308.54,198.38 L 309.49,199.65 L 310.43,201.24 L 311.37,203.14 L 312.31,205.33 L 313.26,207.75 L 314.20,210.40 L 315.14,213.22 L 316.09,216.18 L 317.03,219.24 L 317.97,222.38 L 318.91,225.55 L 319.86,228.72 L 320.80,231.86 L 321.74,234.94 L 322.69,237.93 L 323.63,240.82 L 324.57,243.58 L 325.51,246.21 L 326.46,248.68 L 327.40,250.99 L 328.34,253.14 L 329.29,255.12 L 330.23,256.94 L 331.17,258.59 L 332.11,260.08 L 333.06,261.42 L 334.00,262.62 L 334.94,263.69 L 335.89,264.62 L 336.83,265.44 L 337.77,266.16 L 338.71,266.78 L 339.66,267.31 L 340.60,267.77 L 341.54,268.16 L 342.49,268.49 L 343.43,268.76 L 344.37,268.99 L 345.31,269.19 L 346.26,269.34 L 347.20,269.48 L 348.14,269.58 L 349.09,269.67 L 350.03,269.74 L 350.97,269.79 L 351.91,269.84 L 352.86,269.88 L 353.80,269.90 L 354.74,269.93 L 355.69,269.94 L 356.63,269.96 L 357.57,269.97 L 358.51,269.98 L 359.46,269.98 L 360.40,269.99 L 361.34,269.99 L 362.29,269.99 L 363.23,269.99 L 364.17,270.00 L 365.11,270.00 L 366.06,270.00 L 367.00,270.00 L 367.94,270.00 L 368.89,270.00 L 369.83,270.00 L 370.77,270.00 L 371.71,270.00 L 372.66,270.00 L 373.60,270.00 L 374.54,270.00 L 375.49,270.00 L 376.43,270.00 L 377.37,270.00 L 378.31,270.00 L 379.26,270.00 L 380.20,270.00 L 381.14,270.00 L 382.09,270.00 L 383.03,270.00 L 383.97,270.00 L 384.91,270.00 L 385.86,270.00 L 386.80,270.00 L 387.74,270.00 L 388.69,270.00 L 389.63,270.00 L 390.57,270.00 L 391.51,270.00 L 392.46,270.00 L 393.40,270.00 L 394.34,270.00 L 395.29,270.00 L 396.23,270.00 L 397.17,270.00 L 398.11,270.00 L 399.06,270.00 L 400.00,270.00 L 400.94,270.00 L 401.89,270.00 L 402.83,270.00 L 403.77,270.00 L 404.71,270.00 L 405.66,270.00 L 406.60,270.00 L 407.54,270.00 L 408.49,270.00 L 409.43,270.00 L 410.37,270.00 L 411.31,270.00 L 412.26,270.00 L 413.20,270.00 L 414.14,270.00 L 415.09,270.00 L 416.03,270.00 L 416.97,270.00 L 417.91,270.00 L 418.86,270.00 L 419.80,270.00 L 420.74,270.00 L 421.69,270.00 L 422.63,270.00 L 423.57,270.00 L 424.51,270.00 L 425.46,270.00 L 426.40,270.00 L 427.34,270.00 L 428.29,270.00 L 429.23,270.00 L 430.17,270.00 L 431.11,270.00 L 432.06,270.00 L 433.00,270.00 L 433.94,270.00 L 434.89,270.00 L 435.83,270.00 L 436.77,270.00 L 437.71,270.00 L 438.66,270.00 L 439.60,270.00 L 440.54,270.00 L 441.49,270.00 L 442.43,270.00 L 443.37,270.00 L 444.31,270.00 L 445.26,270.00 L 446.20,270.00 L 447.14,270.00 L 448.09,270.00 L 449.03,270.00 L 449.97,270.00 L 450.91,270.00 L 451.86,270.00 L 452.80,270.00 L 453.74,270.00 L 454.69,270.00 L 455.63,270.00 L 456.57,270.00 L 457.51,270.00 L 458.46,270.00 L 459.40,270.00 L 460.34,270.00 L 461.29,270.00 L 462.23,270.00 L 463.17,270.00 L 464.11,270.00 L 465.06,270.00 L 466.00,270.00 L 466.94,270.00 L 467.89,270.00 L 468.83,270.00 L 469.77,270.00 L 470.71,270.00 L 471.66,270.00 L 472.60,270.00 L 473.54,270.00 L 474.49,270.00 L 475.43,270.00 L 476.37,270.00 L 477.31,270.00 L 478.26,270.00 L 479.20,270.00 L 480.14,270.00 L 481.09,270.00 L 482.03,270.00 L 482.97,270.00 L 483.91,270.00 L 484.86,270.00 L 485.80,270.00 L 486.74,270.00 L 487.69,270.00 L 488.63,270.00 L 489.57,270.00 L 490.51,270.00 L 491.46,270.00 L 492.40,270.00 L 493.34,270.00 L 494.29,270.00 L 495.23,270.00 L 496.17,270.00 L 497.11,270.00 L 498.06,270.00 L 499.00,270.00 L 499.94,270.00 L 500.89,270.00 L 501.83,270.00 L 502.77,270.00 L 503.71,270.00 L 504.66,270.00 L 505.60,270.00 L 506.54,270.00 L 507.49,270.00 L 508.43,270.00 L 509.37,270.00 L 510.31,270.00 L 511.26,270.00 L 512.20,270.00 L 513.14,270.00 L 514.09,270.00 L 515.03,270.00 L 515.97,270.00 L 516.91,270.00 L 517.86,270.00 L 518.80,270.00 L 519.74,270.00 L 520.69,270.00 L 521.63,270.00 L 522.57,270.00 L 523.51,270.00 L 524.46,270.00 L 525.40,270.00 L 526.34,270.00 L 527.29,270.00 L 528.23,270.00 L 529.17,270.00 L 530.11,270.00 L 531.06,270.00 L 532.00,270.00 L 532.94,270.00 L 533.89,270.00 L 534.83,270.00 L 535.77,270.00 L 536.71,270.00 L 537.66,270.00 L 538.60,270.00 L 539.54,270.00 L 540.49,270.00 L 541.43,270.00 L 542.37,270.00 L 543.31,270.00 L 544.26,270.00 L 545.20,270.00 L 546.14,270.00 L 547.09,270.00 L 548.03,270.00 L 548.97,270.00 L 549.91,270.00 L 550.86,270.00 L 551.80,270.00 L 552.74,270.00 L 553.69,270.00 L 554.63,270.00 L 555.57,270.00 L 556.51,270.00 L 557.46,270.00 L 558.40,270.00 L 559.34,270.00 L 560.29,270.00 L 561.23,270.00 L 562.17,270.00 L 563.11,270.00 L 564.06,270.00 L 565.00,270.00 L 565.94,270.00 L 566.89,270.00 L 567.83,270.00 L 568.77,270.00 L 569.71,270.00 L 570.66,270.00 L 571.60,270.00 L 572.54,270.00 L 573.49,270.00 L 574.43,270.00 L 575.37,270.00 L 576.31,270.00 L 577.26,270.00 L 578.20,270.00 L 579.14,270.00 L 580.09,270.00 L 581.03,270.00 L 581.97,270.00 L 582.91,270.00 L 583.86,270.00 L 584.80,270.00 L 585.74,270.00 L 586.69,270.00 L 587.63,270.00 L 588.57,270.00 L 589.51,270.00 L 590.46,270.00 L 591.40,270.00 L 592.34,270.00 L 593.29,270.00 L 594.23,270.00 L 595.17,270.00 L 596.11,270.00 L 597.06,270.00 L 598.00,270.00 L 598.94,270.00 L 599.89,270.00 L 600.83,270.00 L 601.77,270.00 L 602.71,270.00 L 603.66,270.00 L 604.60,270.00 L 605.54,270.00 L 606.49,270.00 L 607.43,270.00 L 608.37,270.00 L 609.31,270.00 L 610.26,270.00 L 611.20,270.00 L 612.14,270.00 L 613.09,270.00 L 614.03,270.00 L 614.97,270.00 L 615.91,270.00 L 616.86,270.00 L 617.80,270.00 L 618.74,270.00 L 619.69,270.00 L 620.63,270.00 L 621.57,270.00 L 622.51,270.00 L 623.46,270.00 L 624.40,270.00 L 625.34,270.00 L 626.29,270.00 L 627.23,270.00 L 628.17,270.00 L 629.11,270.00 L 630.06,270.00 L 631.00,270.00 L 631.94,270.00 L 632.89,270.00 L 633.83,270.00 L 634.77,270.00 L 635.71,270.00 L 636.66,270.00 L 637.60,270.00 L 638.54,270.00 L 639.49,270.00 L 640.43,270.00 L 641.37,270.00 L 642.31,270.00 L 643.26,270.00 L 644.20,270.00 L 645.14,270.00 L 646.09,270.00 L 647.03,270.00 L 647.97,270.00 L 648.91,270.00 L 649.86,270.00 L 650.80,270.00 L 651.74,270.00 L 652.69,270.00 L 653.63,270.00 L 654.57,270.00 L 655.51,270.00 L 656.46,270.00 L 657.40,270.00 L 658.34,270.00 L 659.29,270.00 L 660.23,270.00 L 661.17,270.00 L 662.11,270.00 L 663.06,270.00 L 664.00,270.00 L 664.94,270.00 L 665.89,270.00 L 666.83,270.00 L 667.77,270.00 L 668.71,270.00 L 669.66,270.00 L 670.60,270.00 L 671.54,270.00 L 672.49,270.00 L 673.43,270.00 L 674.37,270.00 L 675.31,270.00 L 676.26,270.00 L 677.20,270.00 L 678.14,270.00 L 679.09,270.00 L 680.03,270.00 L 680.97,270.00 L 681.91,270.00 L 682.86,270.00 L 683.80,270.00 L 684.74,270.00 L 685.69,270.00 L 686.63,270.00 L 687.57,270.00 L 688.51,270.00 L 689.46,270.00 L 690.40,270.00 L 691.34,270.00 L 692.29,270.00 L 693.23,270.00 L 694.17,270.00 L 695.11,270.00 L 696.06,270.00 L 697.00,270.00 L 697.94,270.00 L 698.89,270.00 L 699.83,270.00 L 700.77,270.00 L 701.71,270.00 L 702.66,270.00 L 703.60,270.00 L 704.54,270.00 L 705.49,270.00 L 706.43,270.00 L 707.37,270.00 L 708.31,270.00 L 709.26,270.00 L 710.20,270.00 L 711.14,270.00 L 712.09,270.00 L 713.03,270.00 L 713.97,270.00 L 714.91,270.00 L 715.86,270.00 L 716.80,270.00 L 717.74,270.00 L 718.69,270.00 L 719.63,270.00 L 720.57,270.00 L 721.51,270.00 L 722.46,270.00 L 723.40,270.00 L 724.34,270.00 L 725.29,270.00 L 726.23,270.00 L 727.17,270.00 L 728.11,270.00 L 729.06,270.00 L 730.00,270.00" fill="none" stroke="#f85149" stroke-width="2.5" stroke-linejoin="round"/>
<line x1="294.40" y1="70" x2="294.40" y2="270" stroke="#8b949e" stroke-width="1.3" stroke-dasharray="4 3" opacity="0.9"/>
<text x="300.40" y="86" font-size="11" fill="#8b949e">human mean 238 ms</text>
<text x="300.40" y="99" font-size="11" fill="#6e7681">(Dhakal, 136M keystrokes)</text>
<text x="128" y="80" font-size="11" fill="#f85149">below ~50 ms:</text>
<text x="128" y="94" font-size="11" fill="#f85149">physically impossible for</text>
<text x="128" y="108" font-size="11" fill="#f85149">sustained human typing</text>
<line x1="124" y1="90" x2="100" y2="90" stroke="#f85149" stroke-width="1" opacity="0.7"/>
<text x="360" y="170" font-size="11" fill="#58a6ff">Typer+ samples this exact</text>
<text x="360" y="183" font-size="11" fill="#58a6ff">shape (ex-Gaussian)</text>
<line x1="356" y1="166" x2="246.54" y2="132.00" stroke="#58a6ff" stroke-width="1" opacity="0.6"/>
<circle cx="242.54" cy="126.00" r="2.2" fill="#58a6ff"/>
<rect x="560" y="64" width="13" height="13" rx="2" fill="#58a6ff" opacity="0.85"/>
<text x="579" y="75" font-size="12" fill="#e6edf3">a person</text>
<rect x="560" y="84" width="13" height="13" rx="2" fill="#f85149" opacity="0.85"/>
<text x="579" y="95" font-size="12" fill="#e6edf3">a naive bot</text>
</svg>