<svg xmlns="http://www.w3.org/2000/svg" viewBox="0 0 760 318" width="760" height="318" font-family="ui-monospace,SFMono-Regular,Menlo,Consolas,monospace">
<text x="6" y="30" font-size="16" font-weight="700" fill="#1f2328">Inter-key timing: a person vs a bot</text>
<line x1="58.0" y1="76" x2="58.0" y2="240" stroke="#d0d7de" stroke-width="1"/><text x="58.0" y="258" font-size="11" fill="#6e7681" text-anchor="middle">0</text>
<line x1="154.3" y1="76" x2="154.3" y2="240" stroke="#d0d7de" stroke-width="1"/><text x="154.3" y="258" font-size="11" fill="#6e7681" text-anchor="middle">100</text>
<line x1="250.6" y1="76" x2="250.6" y2="240" stroke="#d0d7de" stroke-width="1"/><text x="250.6" y="258" font-size="11" fill="#6e7681" text-anchor="middle">200</text>
<line x1="346.9" y1="76" x2="346.9" y2="240" stroke="#d0d7de" stroke-width="1"/><text x="346.9" y="258" font-size="11" fill="#6e7681" text-anchor="middle">300</text>
<line x1="443.1" y1="76" x2="443.1" y2="240" stroke="#d0d7de" stroke-width="1"/><text x="443.1" y="258" font-size="11" fill="#6e7681" text-anchor="middle">400</text>
<line x1="539.4" y1="76" x2="539.4" y2="240" stroke="#d0d7de" stroke-width="1"/><text x="539.4" y="258" font-size="11" fill="#6e7681" text-anchor="middle">500</text>
<line x1="635.7" y1="76" x2="635.7" y2="240" stroke="#d0d7de" stroke-width="1"/><text x="635.7" y="258" font-size="11" fill="#6e7681" text-anchor="middle">600</text>
<line x1="732.0" y1="76" x2="732.0" y2="240" stroke="#d0d7de" stroke-width="1"/><text x="732.0" y="258" font-size="11" fill="#6e7681" text-anchor="middle">700</text>
<line x1="58" y1="240" x2="732" y2="240" stroke="#d0d7de" stroke-width="1"/>
<text x="395" y="280" font-size="12.5" fill="#59636e" text-anchor="middle">inter-key interval (milliseconds)</text>
<text x="18" y="158" font-size="12" fill="#6e7681" text-anchor="middle" transform="rotate(-90 18 158)">how often</text>
<rect x="58.0" y="76" width="48.1" height="164" fill="#cf222e" opacity="0.08"/>
<path d="M 58.0 240 L 58.0 240.0 L 60.4 240.0 L 62.8 240.0 L 65.2 240.0 L 67.6 240.0 L 70.0 240.0 L 72.4 240.0 L 74.8 240.0 L 77.3 240.0 L 79.7 240.0 L 82.1 240.0 L 84.5 240.0 L 86.9 240.0 L 89.3 240.0 L 91.7 240.0 L 94.1 239.9 L 96.5 239.9 L 98.9 239.8 L 101.3 239.7 L 103.7 239.5 L 106.1 239.3 L 108.5 239.0 L 111.0 238.6 L 113.4 238.0 L 115.8 237.3 L 118.2 236.5 L 120.6 235.6 L 123.0 234.4 L 125.4 233.1 L 127.8 231.5 L 130.2 229.8 L 132.6 227.9 L 135.0 225.8 L 137.4 223.5 L 139.8 221.0 L 142.2 218.3 L 144.7 215.4 L 147.1 212.5 L 149.5 209.3 L 151.9 206.1 L 154.3 202.7 L 156.7 199.2 L 159.1 195.7 L 161.5 192.1 L 163.9 188.5 L 166.3 184.9 L 168.7 181.3 L 171.1 177.7 L 173.5 174.2 L 175.9 170.7 L 178.4 167.2 L 180.8 163.9 L 183.2 160.6 L 185.6 157.5 L 188.0 154.5 L 190.4 151.6 L 192.8 148.8 L 195.2 146.2 L 197.6 143.7 L 200.0 141.4 L 202.4 139.2 L 204.8 137.2 L 207.2 135.4 L 209.7 133.7 L 212.1 132.1 L 214.5 130.8 L 216.9 129.5 L 219.3 128.5 L 221.7 127.6 L 224.1 126.8 L 226.5 126.2 L 228.9 125.8 L 231.3 125.4 L 233.7 125.3 L 236.1 125.2 L 238.5 125.3 L 240.9 125.5 L 243.4 125.8 L 245.8 126.2 L 248.2 126.7 L 250.6 127.3 L 253.0 128.0 L 255.4 128.8 L 257.8 129.6 L 260.2 130.6 L 262.6 131.6 L 265.0 132.7 L 267.4 133.9 L 269.8 135.1 L 272.2 136.3 L 274.6 137.6 L 277.1 139.0 L 279.5 140.4 L 281.9 141.8 L 284.3 143.2 L 286.7 144.7 L 289.1 146.2 L 291.5 147.7 L 293.9 149.3 L 296.3 150.8 L 298.7 152.4 L 301.1 154.0 L 303.5 155.6 L 305.9 157.1 L 308.3 158.7 L 310.8 160.3 L 313.2 161.9 L 315.6 163.5 L 318.0 165.0 L 320.4 166.6 L 322.8 168.1 L 325.2 169.7 L 327.6 171.2 L 330.0 172.7 L 332.4 174.2 L 334.8 175.7 L 337.2 177.1 L 339.6 178.6 L 342.0 180.0 L 344.4 181.4 L 346.9 182.8 L 349.3 184.2 L 351.7 185.5 L 354.1 186.8 L 356.5 188.1 L 358.9 189.4 L 361.3 190.6 L 363.7 191.9 L 366.1 193.1 L 368.5 194.3 L 370.9 195.4 L 373.3 196.6 L 375.7 197.7 L 378.1 198.8 L 380.6 199.8 L 383.0 200.9 L 385.4 201.9 L 387.8 202.9 L 390.2 203.9 L 392.6 204.9 L 395.0 205.8 L 397.4 206.7 L 399.8 207.6 L 402.2 208.5 L 404.6 209.3 L 407.0 210.2 L 409.4 211.0 L 411.9 211.8 L 414.3 212.6 L 416.7 213.3 L 419.1 214.0 L 421.5 214.8 L 423.9 215.5 L 426.3 216.1 L 428.7 216.8 L 431.1 217.5 L 433.5 218.1 L 435.9 218.7 L 438.3 219.3 L 440.7 219.9 L 443.1 220.5 L 445.5 221.0 L 448.0 221.6 L 450.4 222.1 L 452.8 222.6 L 455.2 223.1 L 457.6 223.6 L 460.0 224.0 L 462.4 224.5 L 464.8 224.9 L 467.2 225.4 L 469.6 225.8 L 472.0 226.2 L 474.4 226.6 L 476.8 227.0 L 479.2 227.4 L 481.7 227.7 L 484.1 228.1 L 486.5 228.4 L 488.9 228.8 L 491.3 229.1 L 493.7 229.4 L 496.1 229.7 L 498.5 230.0 L 500.9 230.3 L 503.3 230.6 L 505.7 230.8 L 508.1 231.1 L 510.5 231.4 L 513.0 231.6 L 515.4 231.9 L 517.8 232.1 L 520.2 232.3 L 522.6 232.6 L 525.0 232.8 L 527.4 233.0 L 529.8 233.2 L 532.2 233.4 L 534.6 233.6 L 537.0 233.8 L 539.4 233.9 L 541.8 234.1 L 544.2 234.3 L 546.6 234.5 L 549.1 234.6 L 551.5 234.8 L 553.9 234.9 L 556.3 235.1 L 558.7 235.2 L 561.1 235.4 L 563.5 235.5 L 565.9 235.6 L 568.3 235.8 L 570.7 235.9 L 573.1 236.0 L 575.5 236.1 L 577.9 236.2 L 580.4 236.3 L 582.8 236.4 L 585.2 236.5 L 587.6 236.6 L 590.0 236.7 L 592.4 236.8 L 594.8 236.9 L 597.2 237.0 L 599.6 237.1 L 602.0 237.2 L 604.4 237.3 L 606.8 237.4 L 609.2 237.4 L 611.6 237.5 L 614.0 237.6 L 616.5 237.6 L 618.9 237.7 L 621.3 237.8 L 623.7 237.8 L 626.1 237.9 L 628.5 238.0 L 630.9 238.0 L 633.3 238.1 L 635.7 238.1 L 638.1 238.2 L 640.5 238.2 L 642.9 238.3 L 645.3 238.3 L 647.8 238.4 L 650.2 238.4 L 652.6 238.5 L 655.0 238.5 L 657.4 238.6 L 659.8 238.6 L 662.2 238.6 L 664.6 238.7 L 667.0 238.7 L 669.4 238.8 L 671.8 238.8 L 674.2 238.8 L 676.6 238.9 L 679.0 238.9 L 681.5 238.9 L 683.9 239.0 L 686.3 239.0 L 688.7 239.0 L 691.1 239.0 L 693.5 239.1 L 695.9 239.1 L 698.3 239.1 L 700.7 239.1 L 703.1 239.2 L 705.5 239.2 L 707.9 239.2 L 710.3 239.2 L 712.7 239.3 L 715.1 239.3 L 717.6 239.3 L 720.0 239.3 L 722.4 239.3 L 724.8 239.4 L 727.2 239.4 L 729.6 239.4 L 732.0 239.4 L 732.0 240 Z" fill="#0969da" opacity="0"><animate attributeName="opacity" dur="7.0s" repeatCount="indefinite" values="0;0;0.16;0.16;0" keyTimes="0;0.18;0.3;0.9;1"/></path>
<path d="M 58.0 240 L 58.0 240.0 L 60.4 240.0 L 62.8 240.0 L 65.2 240.0 L 67.6 240.0 L 70.0 240.0 L 72.4 240.0 L 74.8 240.0 L 77.3 239.9 L 79.7 239.6 L 82.1 238.8 L 84.5 237.0 L 86.9 233.2 L 89.3 225.8 L 91.7 213.1 L 94.1 194.0 L 96.5 168.7 L 98.9 139.6 L 101.3 111.8 L 103.7 91.6 L 106.1 84.2 L 108.5 91.6 L 111.0 111.8 L 113.4 139.6 L 115.8 168.7 L 118.2 194.0 L 120.6 213.1 L 123.0 225.8 L 125.4 233.2 L 127.8 237.0 L 130.2 238.8 L 132.6 239.6 L 135.0 239.9 L 137.4 240.0 L 139.8 240.0 L 142.2 240.0 L 144.7 240.0 L 147.1 240.0 L 149.5 240.0 L 151.9 240.0 L 154.3 240.0 L 156.7 240.0 L 159.1 240.0 L 161.5 240.0 L 163.9 240.0 L 166.3 240.0 L 168.7 240.0 L 171.1 240.0 L 173.5 240.0 L 175.9 240.0 L 178.4 240.0 L 180.8 240.0 L 183.2 240.0 L 185.6 240.0 L 188.0 240.0 L 190.4 240.0 L 192.8 240.0 L 195.2 240.0 L 197.6 240.0 L 200.0 240.0 L 202.4 240.0 L 204.8 240.0 L 207.2 240.0 L 209.7 240.0 L 212.1 240.0 L 214.5 240.0 L 216.9 240.0 L 219.3 240.0 L 221.7 240.0 L 224.1 240.0 L 226.5 240.0 L 228.9 240.0 L 231.3 240.0 L 233.7 240.0 L 236.1 240.0 L 238.5 240.0 L 240.9 240.0 L 243.4 240.0 L 245.8 240.0 L 248.2 240.0 L 250.6 239.9 L 253.0 239.8 L 255.4 239.7 L 257.8 239.5 L 260.2 239.1 L 262.6 238.5 L 265.0 237.7 L 267.4 236.4 L 269.8 234.7 L 272.2 232.3 L 274.6 229.2 L 277.1 225.4 L 279.5 220.9 L 281.9 215.7 L 284.3 210.2 L 286.7 204.4 L 289.1 199.0 L 291.5 194.1 L 293.9 190.3 L 296.3 187.9 L 298.7 187.0 L 301.1 187.9 L 303.5 190.3 L 305.9 194.1 L 308.3 199.0 L 310.8 204.4 L 313.2 210.2 L 315.6 215.7 L 318.0 220.9 L 320.4 225.4 L 322.8 229.2 L 325.2 232.3 L 327.6 234.7 L 330.0 236.4 L 332.4 237.7 L 334.8 238.5 L 337.2 239.1 L 339.6 239.5 L 342.0 239.7 L 344.4 239.8 L 346.9 239.9 L 349.3 240.0 L 351.7 240.0 L 354.1 240.0 L 356.5 240.0 L 358.9 240.0 L 361.3 240.0 L 363.7 240.0 L 366.1 240.0 L 368.5 240.0 L 370.9 240.0 L 373.3 240.0 L 375.7 240.0 L 378.1 240.0 L 380.6 240.0 L 383.0 240.0 L 385.4 240.0 L 387.8 240.0 L 390.2 240.0 L 392.6 240.0 L 395.0 240.0 L 397.4 240.0 L 399.8 240.0 L 402.2 240.0 L 404.6 240.0 L 407.0 240.0 L 409.4 240.0 L 411.9 240.0 L 414.3 240.0 L 416.7 240.0 L 419.1 240.0 L 421.5 240.0 L 423.9 240.0 L 426.3 240.0 L 428.7 240.0 L 431.1 240.0 L 433.5 240.0 L 435.9 240.0 L 438.3 240.0 L 440.7 240.0 L 443.1 240.0 L 445.5 240.0 L 448.0 240.0 L 450.4 240.0 L 452.8 240.0 L 455.2 240.0 L 457.6 240.0 L 460.0 240.0 L 462.4 240.0 L 464.8 240.0 L 467.2 240.0 L 469.6 240.0 L 472.0 240.0 L 474.4 240.0 L 476.8 240.0 L 479.2 240.0 L 481.7 240.0 L 484.1 240.0 L 486.5 240.0 L 488.9 240.0 L 491.3 240.0 L 493.7 240.0 L 496.1 240.0 L 498.5 240.0 L 500.9 240.0 L 503.3 240.0 L 505.7 240.0 L 508.1 240.0 L 510.5 240.0 L 513.0 240.0 L 515.4 240.0 L 517.8 240.0 L 520.2 240.0 L 522.6 240.0 L 525.0 240.0 L 527.4 240.0 L 529.8 240.0 L 532.2 240.0 L 534.6 240.0 L 537.0 240.0 L 539.4 240.0 L 541.8 240.0 L 544.2 240.0 L 546.6 240.0 L 549.1 240.0 L 551.5 240.0 L 553.9 240.0 L 556.3 240.0 L 558.7 240.0 L 561.1 240.0 L 563.5 240.0 L 565.9 240.0 L 568.3 240.0 L 570.7 240.0 L 573.1 240.0 L 575.5 240.0 L 577.9 240.0 L 580.4 240.0 L 582.8 240.0 L 585.2 240.0 L 587.6 240.0 L 590.0 240.0 L 592.4 240.0 L 594.8 240.0 L 597.2 240.0 L 599.6 240.0 L 602.0 240.0 L 604.4 240.0 L 606.8 240.0 L 609.2 240.0 L 611.6 240.0 L 614.0 240.0 L 616.5 240.0 L 618.9 240.0 L 621.3 240.0 L 623.7 240.0 L 626.1 240.0 L 628.5 240.0 L 630.9 240.0 L 633.3 240.0 L 635.7 240.0 L 638.1 240.0 L 640.5 240.0 L 642.9 240.0 L 645.3 240.0 L 647.8 240.0 L 650.2 240.0 L 652.6 240.0 L 655.0 240.0 L 657.4 240.0 L 659.8 240.0 L 662.2 240.0 L 664.6 240.0 L 667.0 240.0 L 669.4 240.0 L 671.8 240.0 L 674.2 240.0 L 676.6 240.0 L 679.0 240.0 L 681.5 240.0 L 683.9 240.0 L 686.3 240.0 L 688.7 240.0 L 691.1 240.0 L 693.5 240.0 L 695.9 240.0 L 698.3 240.0 L 700.7 240.0 L 703.1 240.0 L 705.5 240.0 L 707.9 240.0 L 710.3 240.0 L 712.7 240.0 L 715.1 240.0 L 717.6 240.0 L 720.0 240.0 L 722.4 240.0 L 724.8 240.0 L 727.2 240.0 L 729.6 240.0 L 732.0 240.0 L 732.0 240 Z" fill="#cf222e" opacity="0"><animate attributeName="opacity" dur="7.0s" repeatCount="indefinite" values="0;0;0.18;0.18;0" keyTimes="0;0.216;0.36;0.9;1"/></path>
<path d="M 58.0 240.0 L 60.4 240.0 L 62.8 240.0 L 65.2 240.0 L 67.6 240.0 L 70.0 240.0 L 72.4 240.0 L 74.8 240.0 L 77.3 239.9 L 79.7 239.6 L 82.1 238.8 L 84.5 237.0 L 86.9 233.2 L 89.3 225.8 L 91.7 213.1 L 94.1 194.0 L 96.5 168.7 L 98.9 139.6 L 101.3 111.8 L 103.7 91.6 L 106.1 84.2 L 108.5 91.6 L 111.0 111.8 L 113.4 139.6 L 115.8 168.7 L 118.2 194.0 L 120.6 213.1 L 123.0 225.8 L 125.4 233.2 L 127.8 237.0 L 130.2 238.8 L 132.6 239.6 L 135.0 239.9 L 137.4 240.0 L 139.8 240.0 L 142.2 240.0 L 144.7 240.0 L 147.1 240.0 L 149.5 240.0 L 151.9 240.0 L 154.3 240.0 L 156.7 240.0 L 159.1 240.0 L 161.5 240.0 L 163.9 240.0 L 166.3 240.0 L 168.7 240.0 L 171.1 240.0 L 173.5 240.0 L 175.9 240.0 L 178.4 240.0 L 180.8 240.0 L 183.2 240.0 L 185.6 240.0 L 188.0 240.0 L 190.4 240.0 L 192.8 240.0 L 195.2 240.0 L 197.6 240.0 L 200.0 240.0 L 202.4 240.0 L 204.8 240.0 L 207.2 240.0 L 209.7 240.0 L 212.1 240.0 L 214.5 240.0 L 216.9 240.0 L 219.3 240.0 L 221.7 240.0 L 224.1 240.0 L 226.5 240.0 L 228.9 240.0 L 231.3 240.0 L 233.7 240.0 L 236.1 240.0 L 238.5 240.0 L 240.9 240.0 L 243.4 240.0 L 245.8 240.0 L 248.2 240.0 L 250.6 239.9 L 253.0 239.8 L 255.4 239.7 L 257.8 239.5 L 260.2 239.1 L 262.6 238.5 L 265.0 237.7 L 267.4 236.4 L 269.8 234.7 L 272.2 232.3 L 274.6 229.2 L 277.1 225.4 L 279.5 220.9 L 281.9 215.7 L 284.3 210.2 L 286.7 204.4 L 289.1 199.0 L 291.5 194.1 L 293.9 190.3 L 296.3 187.9 L 298.7 187.0 L 301.1 187.9 L 303.5 190.3 L 305.9 194.1 L 308.3 199.0 L 310.8 204.4 L 313.2 210.2 L 315.6 215.7 L 318.0 220.9 L 320.4 225.4 L 322.8 229.2 L 325.2 232.3 L 327.6 234.7 L 330.0 236.4 L 332.4 237.7 L 334.8 238.5 L 337.2 239.1 L 339.6 239.5 L 342.0 239.7 L 344.4 239.8 L 346.9 239.9 L 349.3 240.0 L 351.7 240.0 L 354.1 240.0 L 356.5 240.0 L 358.9 240.0 L 361.3 240.0 L 363.7 240.0 L 366.1 240.0 L 368.5 240.0 L 370.9 240.0 L 373.3 240.0 L 375.7 240.0 L 378.1 240.0 L 380.6 240.0 L 383.0 240.0 L 385.4 240.0 L 387.8 240.0 L 390.2 240.0 L 392.6 240.0 L 395.0 240.0 L 397.4 240.0 L 399.8 240.0 L 402.2 240.0 L 404.6 240.0 L 407.0 240.0 L 409.4 240.0 L 411.9 240.0 L 414.3 240.0 L 416.7 240.0 L 419.1 240.0 L 421.5 240.0 L 423.9 240.0 L 426.3 240.0 L 428.7 240.0 L 431.1 240.0 L 433.5 240.0 L 435.9 240.0 L 438.3 240.0 L 440.7 240.0 L 443.1 240.0 L 445.5 240.0 L 448.0 240.0 L 450.4 240.0 L 452.8 240.0 L 455.2 240.0 L 457.6 240.0 L 460.0 240.0 L 462.4 240.0 L 464.8 240.0 L 467.2 240.0 L 469.6 240.0 L 472.0 240.0 L 474.4 240.0 L 476.8 240.0 L 479.2 240.0 L 481.7 240.0 L 484.1 240.0 L 486.5 240.0 L 488.9 240.0 L 491.3 240.0 L 493.7 240.0 L 496.1 240.0 L 498.5 240.0 L 500.9 240.0 L 503.3 240.0 L 505.7 240.0 L 508.1 240.0 L 510.5 240.0 L 513.0 240.0 L 515.4 240.0 L 517.8 240.0 L 520.2 240.0 L 522.6 240.0 L 525.0 240.0 L 527.4 240.0 L 529.8 240.0 L 532.2 240.0 L 534.6 240.0 L 537.0 240.0 L 539.4 240.0 L 541.8 240.0 L 544.2 240.0 L 546.6 240.0 L 549.1 240.0 L 551.5 240.0 L 553.9 240.0 L 556.3 240.0 L 558.7 240.0 L 561.1 240.0 L 563.5 240.0 L 565.9 240.0 L 568.3 240.0 L 570.7 240.0 L 573.1 240.0 L 575.5 240.0 L 577.9 240.0 L 580.4 240.0 L 582.8 240.0 L 585.2 240.0 L 587.6 240.0 L 590.0 240.0 L 592.4 240.0 L 594.8 240.0 L 597.2 240.0 L 599.6 240.0 L 602.0 240.0 L 604.4 240.0 L 606.8 240.0 L 609.2 240.0 L 611.6 240.0 L 614.0 240.0 L 616.5 240.0 L 618.9 240.0 L 621.3 240.0 L 623.7 240.0 L 626.1 240.0 L 628.5 240.0 L 630.9 240.0 L 633.3 240.0 L 635.7 240.0 L 638.1 240.0 L 640.5 240.0 L 642.9 240.0 L 645.3 240.0 L 647.8 240.0 L 650.2 240.0 L 652.6 240.0 L 655.0 240.0 L 657.4 240.0 L 659.8 240.0 L 662.2 240.0 L 664.6 240.0 L 667.0 240.0 L 669.4 240.0 L 671.8 240.0 L 674.2 240.0 L 676.6 240.0 L 679.0 240.0 L 681.5 240.0 L 683.9 240.0 L 686.3 240.0 L 688.7 240.0 L 691.1 240.0 L 693.5 240.0 L 695.9 240.0 L 698.3 240.0 L 700.7 240.0 L 703.1 240.0 L 705.5 240.0 L 707.9 240.0 L 710.3 240.0 L 712.7 240.0 L 715.1 240.0 L 717.6 240.0 L 720.0 240.0 L 722.4 240.0 L 724.8 240.0 L 727.2 240.0 L 729.6 240.0 L 732.0 240.0" fill="none" stroke="#cf222e" stroke-width="2.4" stroke-dasharray="1000" stroke-dashoffset="1000"><animate attributeName="stroke-dashoffset" dur="7.0s" repeatCount="indefinite" values="1000;0;0;1000" keyTimes="0;0.36;0.9;1"/></path>
<path d="M 58.0 240.0 L 60.4 240.0 L 62.8 240.0 L 65.2 240.0 L 67.6 240.0 L 70.0 240.0 L 72.4 240.0 L 74.8 240.0 L 77.3 240.0 L 79.7 240.0 L 82.1 240.0 L 84.5 240.0 L 86.9 240.0 L 89.3 240.0 L 91.7 240.0 L 94.1 239.9 L 96.5 239.9 L 98.9 239.8 L 101.3 239.7 L 103.7 239.5 L 106.1 239.3 L 108.5 239.0 L 111.0 238.6 L 113.4 238.0 L 115.8 237.3 L 118.2 236.5 L 120.6 235.6 L 123.0 234.4 L 125.4 233.1 L 127.8 231.5 L 130.2 229.8 L 132.6 227.9 L 135.0 225.8 L 137.4 223.5 L 139.8 221.0 L 142.2 218.3 L 144.7 215.4 L 147.1 212.5 L 149.5 209.3 L 151.9 206.1 L 154.3 202.7 L 156.7 199.2 L 159.1 195.7 L 161.5 192.1 L 163.9 188.5 L 166.3 184.9 L 168.7 181.3 L 171.1 177.7 L 173.5 174.2 L 175.9 170.7 L 178.4 167.2 L 180.8 163.9 L 183.2 160.6 L 185.6 157.5 L 188.0 154.5 L 190.4 151.6 L 192.8 148.8 L 195.2 146.2 L 197.6 143.7 L 200.0 141.4 L 202.4 139.2 L 204.8 137.2 L 207.2 135.4 L 209.7 133.7 L 212.1 132.1 L 214.5 130.8 L 216.9 129.5 L 219.3 128.5 L 221.7 127.6 L 224.1 126.8 L 226.5 126.2 L 228.9 125.8 L 231.3 125.4 L 233.7 125.3 L 236.1 125.2 L 238.5 125.3 L 240.9 125.5 L 243.4 125.8 L 245.8 126.2 L 248.2 126.7 L 250.6 127.3 L 253.0 128.0 L 255.4 128.8 L 257.8 129.6 L 260.2 130.6 L 262.6 131.6 L 265.0 132.7 L 267.4 133.9 L 269.8 135.1 L 272.2 136.3 L 274.6 137.6 L 277.1 139.0 L 279.5 140.4 L 281.9 141.8 L 284.3 143.2 L 286.7 144.7 L 289.1 146.2 L 291.5 147.7 L 293.9 149.3 L 296.3 150.8 L 298.7 152.4 L 301.1 154.0 L 303.5 155.6 L 305.9 157.1 L 308.3 158.7 L 310.8 160.3 L 313.2 161.9 L 315.6 163.5 L 318.0 165.0 L 320.4 166.6 L 322.8 168.1 L 325.2 169.7 L 327.6 171.2 L 330.0 172.7 L 332.4 174.2 L 334.8 175.7 L 337.2 177.1 L 339.6 178.6 L 342.0 180.0 L 344.4 181.4 L 346.9 182.8 L 349.3 184.2 L 351.7 185.5 L 354.1 186.8 L 356.5 188.1 L 358.9 189.4 L 361.3 190.6 L 363.7 191.9 L 366.1 193.1 L 368.5 194.3 L 370.9 195.4 L 373.3 196.6 L 375.7 197.7 L 378.1 198.8 L 380.6 199.8 L 383.0 200.9 L 385.4 201.9 L 387.8 202.9 L 390.2 203.9 L 392.6 204.9 L 395.0 205.8 L 397.4 206.7 L 399.8 207.6 L 402.2 208.5 L 404.6 209.3 L 407.0 210.2 L 409.4 211.0 L 411.9 211.8 L 414.3 212.6 L 416.7 213.3 L 419.1 214.0 L 421.5 214.8 L 423.9 215.5 L 426.3 216.1 L 428.7 216.8 L 431.1 217.5 L 433.5 218.1 L 435.9 218.7 L 438.3 219.3 L 440.7 219.9 L 443.1 220.5 L 445.5 221.0 L 448.0 221.6 L 450.4 222.1 L 452.8 222.6 L 455.2 223.1 L 457.6 223.6 L 460.0 224.0 L 462.4 224.5 L 464.8 224.9 L 467.2 225.4 L 469.6 225.8 L 472.0 226.2 L 474.4 226.6 L 476.8 227.0 L 479.2 227.4 L 481.7 227.7 L 484.1 228.1 L 486.5 228.4 L 488.9 228.8 L 491.3 229.1 L 493.7 229.4 L 496.1 229.7 L 498.5 230.0 L 500.9 230.3 L 503.3 230.6 L 505.7 230.8 L 508.1 231.1 L 510.5 231.4 L 513.0 231.6 L 515.4 231.9 L 517.8 232.1 L 520.2 232.3 L 522.6 232.6 L 525.0 232.8 L 527.4 233.0 L 529.8 233.2 L 532.2 233.4 L 534.6 233.6 L 537.0 233.8 L 539.4 233.9 L 541.8 234.1 L 544.2 234.3 L 546.6 234.5 L 549.1 234.6 L 551.5 234.8 L 553.9 234.9 L 556.3 235.1 L 558.7 235.2 L 561.1 235.4 L 563.5 235.5 L 565.9 235.6 L 568.3 235.8 L 570.7 235.9 L 573.1 236.0 L 575.5 236.1 L 577.9 236.2 L 580.4 236.3 L 582.8 236.4 L 585.2 236.5 L 587.6 236.6 L 590.0 236.7 L 592.4 236.8 L 594.8 236.9 L 597.2 237.0 L 599.6 237.1 L 602.0 237.2 L 604.4 237.3 L 606.8 237.4 L 609.2 237.4 L 611.6 237.5 L 614.0 237.6 L 616.5 237.6 L 618.9 237.7 L 621.3 237.8 L 623.7 237.8 L 626.1 237.9 L 628.5 238.0 L 630.9 238.0 L 633.3 238.1 L 635.7 238.1 L 638.1 238.2 L 640.5 238.2 L 642.9 238.3 L 645.3 238.3 L 647.8 238.4 L 650.2 238.4 L 652.6 238.5 L 655.0 238.5 L 657.4 238.6 L 659.8 238.6 L 662.2 238.6 L 664.6 238.7 L 667.0 238.7 L 669.4 238.8 L 671.8 238.8 L 674.2 238.8 L 676.6 238.9 L 679.0 238.9 L 681.5 238.9 L 683.9 239.0 L 686.3 239.0 L 688.7 239.0 L 691.1 239.0 L 693.5 239.1 L 695.9 239.1 L 698.3 239.1 L 700.7 239.1 L 703.1 239.2 L 705.5 239.2 L 707.9 239.2 L 710.3 239.2 L 712.7 239.3 L 715.1 239.3 L 717.6 239.3 L 720.0 239.3 L 722.4 239.3 L 724.8 239.4 L 727.2 239.4 L 729.6 239.4 L 732.0 239.4" fill="none" stroke="#0969da" stroke-width="2.6" stroke-dasharray="748" stroke-dashoffset="748"><animate attributeName="stroke-dashoffset" dur="7.0s" repeatCount="indefinite" values="748;0;0;748" keyTimes="0;0.3;0.9;1"/></path>
<line x1="287.2" y1="82" x2="287.2" y2="240" stroke="#6e7681" stroke-width="1.3" stroke-dasharray="4 4"/>
<rect x="235.2" y="74" width="104" height="20" rx="5" fill="#ffffff"/><text x="287.2" y="88" font-size="11.5" fill="#59636e" text-anchor="middle">mean 238 ms</text>
<line x1="236.1" y1="127.2" x2="462" y2="126" stroke="#0969da" stroke-width="1.2" opacity="0.7"/>
<text x="470" y="130" font-size="12.5" fill="#0969da">Typer+ samples this exact</text><text x="470" y="148" font-size="12.5" fill="#0969da">shape (ex-Gaussian)</text>
<rect x="600" y="56" width="13" height="13" rx="2" fill="#0969da"/><text x="620" y="67" font-size="12.5" fill="#1f2328">a person</text><rect x="600" y="78" width="13" height="13" rx="2" fill="#cf222e"/><text x="620" y="89" font-size="12.5" fill="#1f2328">a naive bot</text>
<text x="6" y="302" font-size="12.5" fill="#6e7681">A person's gaps are spread and right-skewed (mean 238 ms, Dhakal). A naive bot spikes sub-50 ms.</text>
</svg>
